<?xml version="1.0" standalone="no"?>
<!DOCTYPE svg PUBLIC "-//W3C//DTD SVG 1.1//EN" "http://www.w3.org/Graphics/SVG/1.1/DTD/svg11.dtd" >
<svg xmlns="http://www.w3.org/2000/svg" xmlns:xlink="http://www.w3.org/1999/xlink" version="1.1">
<metadata></metadata>
<defs>
<font id="spaceboyregular" horiz-adv-x="1841" >
<font-face units-per-em="2048" ascent="1649" descent="-399" />
<missing-glyph horiz-adv-x="1024" />
<glyph horiz-adv-x="0" />
<glyph horiz-adv-x="682" />
<glyph unicode=" "  horiz-adv-x="1024" />
<glyph unicode="&#x09;" horiz-adv-x="1024" />
<glyph unicode="&#xa0;" horiz-adv-x="1024" />
<glyph unicode="!" horiz-adv-x="1413" d="M0 14v-194q0 -47 44 -110.5t87 -63.5h148q43 0 88 65q43 60 43 107v198q0 55 -46.5 113.5t-99.5 58.5h-119q-55 0 -100 -58t-45 -116zM0 569q0 -47 44 -110.5t87 -63.5h148q45 0 88 61.5t43 110.5v951q0 53 -47.5 113.5t-98.5 60.5h-119q-55 0 -100 -59.5t-45 -116.5 v-947zM35 14q0 41 35.5 84t74.5 43h119q35 0 73 -44t38 -81v-198q0 -31 -34 -78t-62 -47h-148q-27 0 -61.5 49t-34.5 78v194zM35 569v947q0 39 35.5 84t74.5 45h119q35 0 73 -46.5t38 -80.5v-951q0 -31 -34 -78t-62 -47h-148q-27 0 -61.5 49.5t-34.5 77.5zM63 14v-194 q0 -14 28 -52t40 -38h148q14 0 40.5 36t26.5 52v198q0 25 -28.5 55.5t-53.5 30.5h-119q-27 0 -54.5 -30.5t-27.5 -57.5zM63 569q0 -14 28 -52t40 -38h148q16 0 41.5 35t25.5 53v951q0 25 -28.5 56.5t-53.5 31.5h-119q-25 0 -53.5 -33t-28.5 -57v-947z" />
<glyph unicode="&#x22;" horiz-adv-x="1781" d="M0 842q0 -47 59.5 -101.5t106.5 -54.5h184q51 0 108.5 51.5t57.5 102.5v512q0 53 -63.5 103t-118.5 50h-150q-59 0 -121.5 -49t-62.5 -106v-508zM45 842v508q0 41 48 76.5t91 35.5h150q37 0 87 -36.5t50 -73.5v-512q0 -31 -45 -72t-76 -41h-184q-31 0 -76 42t-45 73z M80 842q0 -16 35 -49t51 -33h184q18 0 52 31t34 49v512q0 23 -39 50.5t-63 27.5h-150q-29 0 -66.5 -27t-37.5 -53v-508zM713 842q0 -47 59 -101.5t107 -54.5h184q51 0 108.5 51.5t57.5 102.5v512q0 55 -64.5 104t-120.5 49h-149q-59 0 -120.5 -49t-61.5 -106v-508zM758 842 v508q0 39 48 75.5t89 36.5h149q39 0 89.5 -36.5t50.5 -73.5v-512q0 -31 -45 -72t-76 -41h-184q-31 0 -76 42t-45 73zM793 842q0 -14 35.5 -48t50.5 -34h184q16 0 51 32t35 48v512q0 23 -40 50.5t-65 27.5h-149q-27 0 -64.5 -28t-37.5 -52v-508z" />
<glyph unicode="#" horiz-adv-x="1878" d="M0 193q0 -53 60.5 -114t113.5 -61h201v-198q0 -51 62.5 -112.5t113.5 -61.5h194q53 0 115 59t62 113v198h204v-196q0 -51 62.5 -112.5t114.5 -61.5h194q53 0 114.5 60.5t61.5 111.5v200h201q53 0 113.5 62t60.5 113v198q0 53 -60.5 112.5t-113.5 59.5h-201v207h201 q55 0 114.5 60.5t59.5 113.5v199q0 53 -60.5 112.5t-113.5 59.5h-201v203q0 51 -62.5 112.5t-113.5 61.5h-194q-49 0 -113 -63.5t-64 -112.5v-199h-204v201q0 68 -76 124l2 -2q-70 51 -121 52h-158q-66 0 -130 -56.5t-64 -119.5v-201h-201q-51 0 -112.5 -61.5t-61.5 -112.5 v-197q0 -55 59.5 -114.5t114.5 -59.5h201v-207h-201q-51 0 -112.5 -61.5t-61.5 -112.5v-196zM47 193v196q0 29 49 78t78 49h248v301h-248q-33 0 -80 47t-47 80v197q0 29 49 78t78 49h248v248q0 43 52 86t95 43h158q41 0 94 -44.5t53 -82.5v-248h300v246q0 31 49 80t80 49 h194q33 0 81 -47.5t48 -79.5v-250h248q31 0 79 -47t48 -78v-199q0 -31 -48 -79t-79 -48h-248v-301h248q31 0 79 -47t48 -78v-198q0 -31 -48 -79t-79 -48h-248v-248q0 -33 -47 -79t-82 -46h-194q-33 0 -81 47t-48 80v243h-300v-245q0 -33 -48 -79t-81 -46h-194q-33 0 -81 47 t-48 80v246h-248q-33 0 -80 47t-47 80zM84 193q0 -16 37 -53.5t53 -37.5h287v-282q0 -16 37 -53t53 -37h194q18 0 54.5 34.5t36.5 53.5v284h376v-282q0 -16 37 -53t54 -37h194q18 0 54 34.5t36 53.5v284h287q14 0 52 38.5t38 52.5v198q0 14 -38 51t-52 37h-285v375h285 q14 0 52 38t38 52v199q0 14 -38 51t-52 37h-287v287q0 18 -35.5 53t-54.5 35h-194q-16 0 -53.5 -37t-37.5 -53v-283h-376v285q0 27 -40 57.5t-69 30.5h-158q-31 0 -69.5 -31t-38.5 -59v-285h-287q-14 0 -52 -38t-38 -52v-197q0 -16 37 -53t53 -37h285v-375h-285 q-14 0 -52 -38t-38 -52v-196zM838 481v371h372v-371h-372zM877 518h294v297h-294v-297zM922 565v203h204v-203h-204z" />
<glyph unicode="+" horiz-adv-x="1781" d="M27 539q0 -53 56 -108.5t110 -55.5h190v-191q0 -49 58.5 -107.5t107.5 -58.5h184q51 0 108.5 56.5t57.5 107.5v193h191q51 0 108 56.5t57 107.5v188q0 49 -58 106.5t-107 57.5h-191v192q0 57 -62.5 110.5t-119.5 53.5h-150q-61 0 -122.5 -53t-61.5 -113v-190h-190 q-49 0 -107.5 -58.5t-58.5 -107.5v-186zM72 539v186q0 29 46 75t75 46h235v235q0 43 48 82t91 39h150q39 0 88 -40t49 -79v-237h236q31 0 75.5 -44t44.5 -75v-188q0 -31 -45 -76t-75 -45h-236v-236q0 -33 -44 -77t-77 -44h-184q-31 0 -76 46.5t-45 76.5v234h-235 q-31 0 -76 45t-45 76zM106 539q0 -18 34 -51t53 -33h270v-271q0 -12 37 -49t49 -37h184q18 0 52 33t34 51v273h271q16 0 51 35t35 49v188q0 16 -35 50t-51 34h-271v272q0 23 -39 53.5t-63 30.5h-150q-29 0 -66.5 -29.5t-37.5 -56.5v-270h-270q-16 0 -51.5 -35t-35.5 -51 v-186z" />
<glyph unicode="." horiz-adv-x="1413" d="M6 12v-147q0 -39 47 -85t86 -46h146q39 0 85 45t46 84v149q0 49 -48.5 89t-97.5 40h-118q-49 0 -97.5 -41t-48.5 -88zM43 12q0 35 41 66q31 29 68 28h118q35 0 73 -30.5t38 -63.5v-149q0 -25 -36 -59.5t-60 -34.5h-146q-23 0 -59.5 36.5t-36.5 59.5v147zM70 12v-147 q0 -12 28.5 -40t40.5 -28h146q12 0 39.5 27t27.5 39v149q0 20 -29.5 43t-52.5 23h-118q-20 0 -51 -22.5t-31 -43.5z" />
<glyph unicode="0" horiz-adv-x="1937" d="M0 184q0 -55 58.5 -114.5t113.5 -59.5h197v-200q0 -51 59 -113t111 -62h561q51 0 110.5 60.5t59.5 111.5v203h196q53 0 112.5 59.5t59.5 112.5v951q0 51 -60 112.5t-112 61.5h-196v202q0 70 -74 123l2 -2q-63 51 -117 51h-524q-63 0 -125.5 -55t-62.5 -119v-200h-197 q-51 0 -111.5 -62.5t-60.5 -114.5v-946zM45 184v946q0 31 48 80.5t79 49.5h242v247q0 45 48 86t95 41h524q45 0 94.5 -41t49.5 -84v-249h241q31 0 79 -48.5t48 -78.5v-951q0 -33 -47 -79t-80 -46h-241v-250q0 -29 -48.5 -76.5t-76.5 -47.5h-561q-29 0 -77 49t-48 78v247 h-242q-35 0 -81 46.5t-46 80.5zM82 184q0 -18 36 -54t54 -36h279v-284q0 -14 36.5 -52.5t51.5 -38.5h561q14 0 51 37t37 51v287h278q18 0 54 35t36 53v951q0 18 -35.5 53t-54.5 35h-278v288q0 25 -40 56.5t-67 31.5h-524q-27 0 -66.5 -31.5t-39.5 -58.5v-286h-279 q-16 0 -53 -37t-37 -54v-946zM453 96v1123h733v-1123h-733zM489 133h660v1049h-660v-1049zM537 180v955h565v-955h-565z" />
<glyph unicode="1" horiz-adv-x="1671" d="M0 944q0 -53 51 -113.5t105 -60.5h178v-950q0 -51 53 -112.5t102 -61.5h175q49 0 102 60.5t53 111.5v1700q0 57 -57 115.5t-115 58.5h-141q-59 0 -115.5 -57.5t-56.5 -118.5v-201h-178q-49 0 -102.5 -61.5t-53.5 -112.5v-197zM41 944v197q0 29 43 78t72 49h221v248 q0 41 44 85t85 44h141q39 0 85 -44.5t46 -82.5v-1700q0 -31 -42 -78t-72 -47h-175q-31 0 -71.5 47t-40.5 80v997h-221q-31 0 -73 48t-42 79zM76 944q0 -18 30.5 -54t49.5 -36h254v-1034q0 -16 31.5 -53t47.5 -37h175q16 0 47.5 36t31.5 52v1700q0 25 -35.5 56.5t-60.5 31.5 h-141q-29 0 -62.5 -31t-33.5 -59v-285h-254q-14 0 -47 -37t-33 -53v-197z" />
<glyph unicode="2" d="M0 -180q0 -51 60.5 -112.5t111.5 -61.5h1294q53 0 112.5 59.5t59.5 112.5v198q0 49 -61 110.5t-111 61.5h-929v207h563q53 0 111.5 59.5t58.5 112.5v203h196q53 0 112.5 60.5t59.5 113.5v199q0 51 -59 111.5t-113 60.5h-196v203q0 61 -63.5 117.5t-125.5 56.5h-891 q-66 0 -128 -56.5t-62 -119.5v-195q0 -55 58.5 -114.5t113.5 -59.5h930v-207h-563q-51 0 -110.5 -62.5t-59.5 -113.5v-201h-197q-53 0 -112.5 -60.5t-59.5 -113.5v-569zM45 -180v569q0 33 47 80t80 47h242v248q0 29 48 79t77 50h610v301h-977q-35 0 -81 46t-46 81v195 q0 41 51 85t94 44h891q41 0 92.5 -44.5t51.5 -82.5v-250h241q31 0 79 -47t48 -78v-199q0 -29 -47 -78t-80 -49h-241v-250q0 -31 -47.5 -78t-77.5 -47h-611v-301h977q27 0 78 -45q49 -53 49 -80v-198q0 -33 -47 -79t-80 -46h-1294q-33 0 -80 47t-47 80zM82 -180q0 -16 37 -53 t53 -37h1294q18 0 54 35t36 53v198q0 14 -36 54q-33 33 -54 32h-1013v377h647q20 0 54 34t34 54v287h278q18 0 54 37t36 53v199q0 16 -36.5 52t-53.5 36h-278v287q0 27 -39 57.5t-68 30.5h-891q-31 0 -69.5 -31t-38.5 -59v-195q0 -18 36 -54t54 -36h1014v-377h-647 q-16 0 -52 -37t-36 -53v-285h-279q-18 0 -54 -35.5t-36 -54.5v-569z" />
<glyph unicode="3" d="M0 14v-194q0 -51 60.5 -112.5t111.5 -61.5h928q51 0 110.5 60.5t59.5 111.5v200h196q51 0 111.5 62t60.5 113v198q0 51 -59 111.5t-113 60.5h-194v207h194q53 0 112.5 60.5t59.5 113.5v199q0 51 -59 111.5t-113 60.5h-196v203q0 70 -74 124l2 -2q-70 51 -117 52h-891 q-66 0 -128 -56.5t-62 -119.5v-195q0 -51 60.5 -112.5t111.5 -61.5h930v-207h-563q-51 0 -110.5 -62.5t-59.5 -113.5v-195q0 -53 59 -113.5t111 -60.5h563v-207h-930q-53 0 -112.5 -60t-59.5 -114zM45 14q0 33 47 80t80 47h977v301h-610q-31 0 -78 48.5t-47 78.5v195 q0 33 46 81t79 48h610v301h-977q-33 0 -80 47t-47 80v195q0 41 51 85t94 44h891q41 0 92.5 -44.5t51.5 -82.5v-250h241q31 0 79 -47t48 -78v-199q0 -29 -47 -78t-80 -49h-239v-301h239q31 0 79 -47t48 -78v-198q0 -29 -47 -78t-80 -49h-241v-248q0 -31 -47.5 -78t-77.5 -47 h-928q-33 0 -80 47t-47 80v194zM82 14v-194q0 -16 37 -53t53 -37h928q16 0 52 35.5t36 52.5v284h278q18 0 54 37.5t36 53.5v198q0 16 -36.5 52t-53.5 36h-276v375h276q18 0 54 37t36 53v199q0 16 -36.5 52t-53.5 36h-278v287q0 27 -39 57.5t-68 30.5h-891q-31 0 -69.5 -31 t-38.5 -59v-195q0 -16 37 -53t53 -37h1014v-377h-647q-18 0 -53 -36t-35 -54v-195q0 -16 35.5 -53t52.5 -37h647v-377h-1014q-18 0 -54 -34.5t-36 -53.5z" />
<glyph unicode="4" d="M0 569q0 -55 58.5 -114.5t113.5 -59.5h565v-575q0 -53 58.5 -113.5t111.5 -60.5h193q51 0 110.5 60.5t59.5 111.5v577h196q53 0 112.5 59.5t59.5 112.5v199q0 51 -60 112.5t-112 61.5h-196v578q0 53 -59.5 113.5t-110.5 60.5h-193q-51 0 -110.5 -61.5t-59.5 -114.5v-574 h-202v576q0 61 -64.5 117.5t-126.5 56.5h-154q-66 0 -128 -56.5t-62 -119.5v-947zM45 569v947q0 41 51 85t94 44h154q41 0 92 -44.5t51 -82.5v-623h295v621q0 31 47.5 80t77.5 49h193q31 0 78 -48.5t47 -78.5v-625h241q31 0 79 -48t48 -79v-199q0 -31 -48 -78t-79 -47h-241 v-624q0 -31 -47.5 -78t-77.5 -47h-193q-33 0 -79 47t-46 80v622h-610q-33 0 -80 47.5t-47 79.5zM82 569q0 -18 36 -54t54 -36h647v-659q0 -16 36 -53t52 -37h193q16 0 52 35.5t36 52.5v661h278q18 0 54 35t36 53v199q0 18 -35.5 53t-54.5 35h-278v664q0 16 -36 52t-52 36 h-193q-16 0 -52 -37t-36 -53v-660h-368v662q0 27 -40 57.5t-67 30.5h-154q-31 0 -69.5 -31t-38.5 -59v-947z" />
<glyph unicode="5" d="M0 14v-194q0 -51 60.5 -112.5t111.5 -61.5h928q51 0 110.5 60.5t59.5 111.5v200h196q51 0 111.5 62t60.5 113v198q0 53 -59 112.5t-113 59.5h-196v203q0 51 -59.5 112.5t-110.5 61.5h-563v207h563q53 0 111.5 59.5t58.5 112.5v199q0 61 -63.5 117.5t-125.5 56.5h-891 q-66 0 -128 -56.5t-62 -119.5v-947q0 -51 60.5 -112.5t111.5 -61.5h930v-207h-930q-53 0 -112.5 -60t-59.5 -114zM45 14q0 33 47 80t80 47h977v301h-977q-33 0 -80 47.5t-47 79.5v947q0 41 51 85t94 44h891q41 0 92.5 -44.5t51.5 -82.5v-199q0 -33 -46 -79t-79 -46h-611 v-301h611q31 0 78 -48t47 -79v-250h241q31 0 79 -47t48 -78v-198q0 -29 -47 -78t-80 -49h-241v-248q0 -31 -47.5 -78t-77.5 -47h-928q-33 0 -80 47t-47 80v194zM82 14v-194q0 -16 37 -53t53 -37h928q16 0 52 35.5t36 52.5v284h278q18 0 54 37.5t36 53.5v198q0 16 -36.5 52 t-53.5 36h-278v287q0 16 -36 52t-52 36h-647v377h647q20 0 54 33.5t34 54.5v199q0 27 -39 57.5t-68 30.5h-891q-31 0 -69.5 -31t-38.5 -59v-947q0 -16 37 -53t53 -37h1014v-377h-1014q-18 0 -54 -34.5t-36 -53.5z" />
<glyph unicode="6" d="M0 193q0 -53 59.5 -114t112.5 -61h197v-198q0 -53 59 -113.5t111 -60.5h561q51 0 110.5 60.5t59.5 111.5v200h196q51 0 111.5 62t60.5 113v198q0 53 -59 112.5t-113 59.5h-196v203q0 51 -59.5 112.5t-110.5 61.5h-563v207h563q53 0 111.5 59.5t58.5 112.5v199 q0 70 -74 124l2 -2q-70 51 -117 52h-524q-63 0 -125.5 -56.5t-62.5 -119.5v-201h-197q-51 0 -111.5 -61.5t-60.5 -112.5v-948zM45 193v948q0 31 48 79t79 48h242v248q0 43 50 86t93 43h524q41 0 92.5 -44.5t51.5 -82.5v-199q0 -33 -46 -79t-79 -46h-611v-301h611 q31 0 78 -48t47 -79v-250h241q31 0 79 -47t48 -78v-198q0 -29 -47 -78t-80 -49h-241v-248q0 -31 -47.5 -78t-77.5 -47h-561q-31 0 -78 48t-47 79v246h-242q-33 0 -80 47t-47 80zM82 193q0 -18 36 -54.5t54 -36.5h279v-282q0 -16 35.5 -53t52.5 -37h561q16 0 52 35.5t36 52.5 v284h278q18 0 54 37.5t36 53.5v198q0 16 -36.5 52t-53.5 36h-278v287q0 16 -36 52t-52 36h-647v377h647q20 0 54 33.5t34 54.5v199q0 27 -39 57.5t-68 30.5h-524q-29 0 -67.5 -31t-38.5 -59v-285h-279q-12 0 -51 -39t-39 -51v-948zM453 104v373h733v-373h-733zM489 143h660 v297h-660v-297zM537 190v203h565v-203h-565z" />
<glyph unicode="7" horiz-adv-x="1781" d="M0 1321q0 -55 56.5 -114.5t109.5 -59.5h547v-1327q0 -51 57 -112.5t109 -61.5h184q51 0 108.5 60.5t57.5 111.5v1700q0 68 -72 124l2 -2q-66 51 -115 52h-860q-63 0 -123.5 -56.5t-60.5 -119.5v-195zM45 1321v195q0 68 96 118q20 10 43 11h860q41 0 90.5 -43t49.5 -84 v-1700q0 -33 -44 -79t-77 -46h-184q-33 0 -77 47t-44 80v1374h-592q-37 0 -79 45t-42 82zM80 1321q0 -23 37 -59q31 -31 49 -31h627v-1411q0 -16 34.5 -53t51.5 -37h184q16 0 51 36t35 52v1700q0 27 -38 57.5t-67 30.5h-860q-31 0 -67.5 -30t-36.5 -60v-195z" />
<glyph unicode="8" d="M0 193q0 -53 59.5 -114t112.5 -61h197v-198q0 -53 59 -113.5t111 -60.5h561q51 0 110.5 60.5t59.5 111.5v200h196q51 0 111.5 62t60.5 113v198q0 51 -59 111.5t-113 60.5h-194v207h194q53 0 112.5 60.5t59.5 113.5v199q0 51 -59 111.5t-113 60.5h-196v203q0 70 -74 124 l2 -2q-70 51 -117 52h-524q-63 0 -125.5 -56.5t-62.5 -119.5v-201h-197q-51 0 -111.5 -61.5t-60.5 -112.5v-197q0 -55 58.5 -114.5t113.5 -59.5h195v-207h-195q-51 0 -111.5 -61.5t-60.5 -112.5v-196zM45 193v196q0 31 48 79t79 48h240v301h-240q-33 0 -80 47t-47 80v197 q0 31 48 79t79 48h242v248q0 43 50 86t93 43h524q41 0 92.5 -44.5t51.5 -82.5v-250h241q31 0 79 -47t48 -78v-199q0 -29 -47 -78t-80 -49h-239v-301h239q31 0 79 -47t48 -78v-198q0 -29 -47 -78t-80 -49h-241v-248q0 -31 -47.5 -78t-77.5 -47h-561q-31 0 -78 48t-47 79v246 h-242q-33 0 -80 47t-47 80zM82 193q0 -18 36 -54.5t54 -36.5h279v-282q0 -16 35.5 -53t52.5 -37h561q16 0 52 35.5t36 52.5v284h278q18 0 54 37.5t36 53.5v198q0 16 -36.5 52t-53.5 36h-276v375h276q18 0 54 37t36 53v199q0 16 -36.5 52t-53.5 36h-278v287q0 27 -39 57.5 t-68 30.5h-524q-29 0 -67.5 -31t-38.5 -59v-285h-279q-12 0 -51 -39t-39 -51v-197q0 -18 36 -54t54 -36h277v-375h-277q-16 0 -53 -36.5t-37 -53.5v-196zM453 104v373h733v-373h-733zM453 856v373h733v-373h-733zM489 143h660v297h-660v-297zM489 895h660v297h-660v-297z M537 190v203h565v-203h-565zM537 942v203h565v-203h-565z" />
<glyph unicode="9" d="M0 944q0 -55 58.5 -114.5t113.5 -59.5h197v-201q0 -53 59 -113.5t111 -60.5h563v-207h-563q-51 0 -110.5 -61t-59.5 -113v-194q0 -53 59 -113.5t111 -60.5h561q51 0 110.5 60.5t59.5 111.5v200h196q51 0 111.5 62t60.5 113v950q0 51 -59 111.5t-113 60.5h-196v203 q0 61 -63.5 117.5t-125.5 56.5h-524q-63 0 -125.5 -56.5t-62.5 -119.5v-201h-197q-51 0 -111.5 -61.5t-60.5 -112.5v-197zM45 944v197q0 31 48 79t79 48h242v248q0 43 50 86t93 43h524q41 0 92.5 -44.5t51.5 -82.5v-250h241q31 0 79 -47t48 -78v-950q0 -29 -47 -78t-80 -49 h-241v-248q0 -31 -47.5 -78t-77.5 -47h-561q-31 0 -78 48t-47 79v194q0 33 46 80t79 47h610v301h-610q-31 0 -78 48.5t-47 78.5v248h-242q-33 0 -80 47t-47 80zM82 944q0 -18 36 -54t54 -36h279v-285q0 -16 35.5 -53t52.5 -37h647v-377h-647q-20 0 -54 -33.5t-34 -54.5v-194 q0 -16 35.5 -53t52.5 -37h561q16 0 52 35.5t36 52.5v284h278q18 0 54 37.5t36 53.5v950q0 16 -36.5 52t-53.5 36h-278v287q0 27 -39 57.5t-68 30.5h-524q-29 0 -67.5 -31t-38.5 -59v-285h-279q-12 0 -51 -39t-39 -51v-197zM453 856v373h733v-373h-733zM489 895h660v297h-660 v-297zM537 942v203h565v-203h-565z" />
<glyph unicode=":" horiz-adv-x="1413" d="M14 184q0 -45 44 -105.5t87 -60.5h148q45 0 88 58.5t43 105.5v189q0 51 -48 107.5t-97 56.5h-119q-53 0 -99.5 -56.5t-46.5 -109.5v-185zM14 895q0 -45 44 -104.5t87 -59.5h148q47 0 89 57.5t42 106.5v188q0 66 -57 117l2 -2q-49 49 -90 49h-119q-53 0 -99.5 -56 t-46.5 -110v-186zM49 184v185q0 39 36 79.5t75 40.5h119q35 0 72.5 -41.5t37.5 -76.5v-189q0 -27 -36 -74t-60 -47h-148q-25 0 -60.5 48.5t-35.5 74.5zM49 895v186q0 39 36 80t75 41h119q35 0 72.5 -42t37.5 -77v-188q0 -27 -36 -74t-60 -47h-148q-25 0 -60.5 47t-35.5 74z M78 184q0 -14 27.5 -50t39.5 -36h148q16 0 41.5 34t25.5 50v189q0 23 -29.5 53.5t-51.5 30.5h-119q-25 0 -53.5 -31t-28.5 -55v-185zM78 895q0 -14 27.5 -49t39.5 -35h148q16 0 41.5 34t25.5 50v188q0 23 -29.5 53.5t-51.5 30.5h-119q-20 0 -51 -32.5t-31 -53.5v-186z" />
<glyph unicode="=" d="M18 184q0 -51 59.5 -108.5t112.5 -57.5h1295q53 0 112.5 56.5t59.5 107.5v189q0 57 -65.5 110.5t-125.5 53.5h-1257q-61 0 -126 -53.5t-65 -112.5v-185zM18 895q0 -49 60.5 -106.5t111.5 -57.5h1295q55 0 113.5 55.5t58.5 108.5v188q0 63 -74 117l2 -2q-66 49 -119 49 h-1257q-61 0 -126 -53t-65 -113v-186zM63 184v185q0 41 51.5 80.5t94.5 39.5h1257q43 0 94.5 -38.5t51.5 -79.5v-189q0 -33 -47 -77t-80 -44h-1295q-31 0 -79 46.5t-48 76.5zM63 895v186q0 41 51.5 81t94.5 40h1257q43 0 94.5 -39t51.5 -80v-188q0 -33 -47 -77t-80 -44 h-1295q-29 0 -78 46t-49 75zM100 184q0 -12 38 -49t52 -37h1295q18 0 54 33t36 51v189q0 25 -41 54.5t-68 29.5h-1257q-29 0 -69 -30t-40 -56v-185zM100 895q0 -16 37 -50t53 -34h1295q18 0 54 33t36 51v188q0 25 -41 54.5t-68 29.5h-1257q-27 0 -68 -30.5t-41 -55.5v-186z " />
<glyph unicode="A" horiz-adv-x="1951" d="M0 -190q0 -51 60.5 -113t111.5 -62h190q53 0 113 59.5t60 112.5v201h569v-198q0 -51 60.5 -113t111.5 -62h190q53 0 112.5 59.5t59.5 112.5v1326q0 51 -60 112.5t-112 61.5h-196v202q0 70 -74 123l2 -2q-63 51 -117 51h-524q-63 0 -125.5 -55t-62.5 -119v-200h-197 q-53 0 -112.5 -61.5t-59.5 -115.5v-1320zM45 -190v1320q0 33 47 81.5t80 48.5h242v247q0 45 48 86t95 41h524q45 0 94.5 -41t49.5 -84v-249h241q31 0 79 -48.5t48 -78.5v-1326q0 -31 -48 -77.5t-79 -46.5h-190q-31 0 -78 48t-47 79v245h-664v-248q0 -31 -47 -77.5t-78 -46.5 h-190q-31 0 -79 48t-48 79zM82 -190q0 -14 38 -52.5t52 -38.5h190q14 0 51.5 37t37.5 51v285h737v-282q0 -14 37 -52.5t51 -38.5h190q16 0 53 36t37 52v1326q0 18 -35.5 53t-54.5 35h-278v288q0 25 -40 56.5t-67 31.5h-524q-27 0 -66.5 -31.5t-39.5 -58.5v-286h-279 q-18 0 -54 -36t-36 -55v-1320zM453 471v748h733v-748h-733zM489 510h660v672h-660v-672zM537 557v578h565v-578h-565z" />
<glyph unicode="B" horiz-adv-x="1929" d="M0 -188v1695q0 63 62.5 118.5t127.5 55.5h891q61 0 125 -56t64 -116v-202h196q49 0 110.5 -62.5t61.5 -111.5v-199q0 -53 -59 -112.5t-113 -59.5h-194v-207h194q49 0 110.5 -62.5t61.5 -111.5v-199q0 -53 -59 -112.5t-113 -59.5h-196v-200q0 -51 -59.5 -111.5 t-110.5 -60.5h-928q-53 0 -112.5 60t-59.5 114zM45 -188q0 -31 48 -79t79 -48h928q27 0 76 49t49 76v247h241q33 0 80 46t47 79v199q0 31 -48 79t-79 48h-239v299h239q31 0 79 48t48 79v199q0 31 -48 79t-79 48h-241v249q0 41 -51.5 83t-92.5 42h-891q-47 0 -96 -41t-49 -86 v-1695zM82 -188v1695q0 27 40 58.5t68 31.5h891q27 0 67 -31.5t40 -56.5v-288h278q18 0 54 -35t36 -53v-199q0 -18 -35.5 -53t-54.5 -35h-276v-377h276q18 0 54 -35t36 -53v-199q0 -18 -35.5 -53t-54.5 -35h-278v-284q0 -14 -37 -51.5t-51 -37.5h-928q-14 0 -52 38t-38 53z M453 96h733v371h-733v-371zM453 848h733v371h-733v-371zM489 133v297h660v-297h-660zM489 885v297h660v-297h-660zM537 180h565v203h-565v-203zM537 932h565v203h-565v-203z" />
<glyph unicode="C" horiz-adv-x="1918" d="M0 184q0 -55 58.5 -114.5t113.5 -59.5h197v-200q0 -51 59 -113t111 -62h561q51 0 110.5 60.5t59.5 111.5v203h196q53 0 112.5 59.5t59.5 112.5v199q0 51 -60 112.5t-112 61.5h-190q-53 0 -112.5 -61.5t-59.5 -114.5v-199h-567v955h567v-199q0 -51 60.5 -112.5 t111.5 -61.5h190q53 0 112.5 59.5t59.5 112.5v199q0 51 -60 112.5t-112 61.5h-196v202q0 61 -63.5 116.5t-125.5 55.5h-524q-63 0 -125.5 -55t-62.5 -119v-200h-197q-51 0 -111.5 -62.5t-60.5 -114.5v-946zM45 184v946q0 31 48 80.5t79 49.5h242v247q0 45 48 86t95 41h524 q45 0 94.5 -41t49.5 -84v-249h241q31 0 79 -48.5t48 -78.5v-199q0 -31 -48 -79t-79 -48h-190q-31 0 -78 49t-47 80v246h-662v-1049h662v246q0 33 46 81t79 48h190q31 0 79 -48t48 -79v-199q0 -33 -47 -79t-80 -46h-241v-250q0 -29 -48.5 -76.5t-76.5 -47.5h-561 q-29 0 -77 49t-48 78v247h-242q-35 0 -81 46.5t-46 80.5zM82 184q0 -18 36 -54t54 -36h279v-284q0 -14 36.5 -52.5t51.5 -38.5h561q14 0 51 37t37 51v287h278q18 0 54 35t36 53v199q0 18 -35.5 53t-54.5 35h-190q-18 0 -53 -36t-35 -54v-283h-735v1123h735v-283 q0 -16 36 -53t52 -37h190q18 0 54 34.5t36 53.5v199q0 18 -35.5 53t-54.5 35h-278v288q0 25 -40 56.5t-67 31.5h-524q-27 0 -66.5 -31.5t-39.5 -58.5v-286h-279q-16 0 -53 -37t-37 -54v-946z" />
<glyph unicode="D" horiz-adv-x="1937" d="M0 -190q0 -51 60.5 -113t111.5 -62h928q51 0 110.5 60.5t59.5 111.5v203h196q53 0 112.5 59.5t59.5 112.5v951q0 51 -60 112.5t-112 61.5h-196v202q0 70 -74 123l2 -2q-63 51 -117 51h-891q-66 0 -128 -55t-62 -119v-1697zM45 -190v1697q0 45 49 86t96 41h891 q45 0 94.5 -41t49.5 -84v-249h241q31 0 79 -48.5t48 -78.5v-951q0 -33 -47 -79t-80 -46h-241v-250q0 -29 -48.5 -76.5t-76.5 -47.5h-928q-31 0 -79 48t-48 79zM82 -190q0 -14 38 -52.5t52 -38.5h928q14 0 51 37t37 51v287h278q18 0 54 35t36 53v951q0 18 -35.5 53t-54.5 35 h-278v288q0 25 -40 56.5t-67 31.5h-891q-29 0 -68.5 -31.5t-39.5 -58.5v-1697zM453 96v1123h733v-1123h-733zM489 133h660v1049h-660v-1049zM537 180v955h565v-955h-565z" />
<glyph unicode="E" horiz-adv-x="1906" d="M0 184q0 -55 58.5 -114.5t113.5 -59.5h197v-200q0 -51 59 -113t111 -62h927q53 0 112.5 59.5t59.5 112.5v201q0 51 -60 110.5t-112 59.5h-929v207h563q53 0 111.5 59.5t58.5 112.5v201q0 53 -58.5 112.5t-111.5 59.5h-563v207h929q53 0 112.5 59t59.5 113v200 q0 68 -73 123l2 -2q-63 51 -119 51h-891q-63 0 -125.5 -55t-62.5 -119v-200h-197q-51 0 -111.5 -62.5t-60.5 -114.5v-946zM45 184v946q0 31 48 80.5t79 49.5h242v247q0 45 48 86t95 41h891q45 0 95 -41t50 -84v-200q0 -33 -47 -79t-80 -46h-977v-301h611q29 0 77 -48.5 t48 -76.5v-201q0 -31 -47.5 -78t-77.5 -47h-611v-301h977q31 0 79 -46t48 -77v-201q0 -31 -48 -77.5t-79 -46.5h-927q-29 0 -77 49t-48 78v247h-242q-35 0 -81 46.5t-46 80.5zM82 184q0 -18 36 -54t54 -36h279v-284q0 -14 36.5 -52.5t51.5 -38.5h927q16 0 53 36t37 52v201 q0 10 -36 51q-39 35 -54 35h-1013v375h647q14 0 51 37t37 51v201q0 14 -37 51t-51 37h-647v375h1013q16 0 53 35.5t37 52.5v200q0 25 -40.5 56.5t-67.5 31.5h-891q-27 0 -66.5 -31.5t-39.5 -58.5v-286h-279q-16 0 -53 -37t-37 -54v-946z" />
<glyph unicode="F" horiz-adv-x="1845" d="M0 -190q0 -51 60.5 -113t111.5 -62h190q51 0 112 60.5t61 111.5v578h565q53 0 111.5 59.5t58.5 112.5v201q0 53 -58.5 112.5t-111.5 59.5h-563v207h929q53 0 112.5 59.5t59.5 112.5v200q0 68 -73 123l2 -2q-63 51 -119 51h-891q-63 0 -125.5 -55t-62.5 -119v-200h-197 q-53 0 -112.5 -61.5t-59.5 -115.5v-1320zM45 -190v1320q0 33 47 81.5t80 48.5h242v247q0 45 48 86t95 41h891q45 0 95 -41t50 -84v-200q0 -33 -47 -79t-80 -46h-977v-301h611q29 0 77 -48.5t48 -76.5v-201q0 -31 -47.5 -78t-77.5 -47h-613v-625q0 -31 -47 -77.5t-78 -46.5 h-190q-31 0 -79 48t-48 79zM82 -190q0 -14 38 -52.5t52 -38.5h190q14 0 51.5 37t37.5 51v662h649q14 0 51 37t37 51v201q0 14 -37 51t-51 37h-647v375h1013q16 0 53 36t37 52v200q0 25 -40.5 56.5t-67.5 31.5h-891q-27 0 -66.5 -31.5t-39.5 -58.5v-286h-279q-18 0 -54 -36 t-36 -55v-1320z" />
<glyph unicode="G" horiz-adv-x="1927" d="M0 184q0 -55 58.5 -114.5t113.5 -59.5h197v-200q0 -51 59 -113t111 -62h927q53 0 112.5 59.5t59.5 112.5v951q0 53 -59 112.5t-113 59.5h-559q-55 0 -112.5 -59.5t-57.5 -114.5v-197q0 -51 59.5 -112.5t110.5 -61.5h195v-205h-565v957h563q53 0 111.5 59t58.5 113v200 q0 70 -74 123l2 -2q-63 51 -117 51h-524q-63 0 -125.5 -55t-62.5 -119v-200h-197q-51 0 -111.5 -62.5t-60.5 -114.5v-946zM45 184v946q0 31 48 80.5t79 49.5h242v247q0 45 48 86t95 41h524q45 0 94.5 -41t49.5 -84v-200q0 -31 -47.5 -78t-77.5 -47h-611v-1051h660v299h-242 q-31 0 -78 48t-47 79v197q0 33 46 80t79 47h559q31 0 79 -47.5t48 -77.5v-951q0 -31 -48 -77.5t-79 -46.5h-927q-29 0 -77 49t-48 78v247h-242q-35 0 -81 46.5t-46 80.5zM82 184q0 -18 36 -54t54 -36h279v-284q0 -14 36.5 -52.5t51.5 -38.5h927q16 0 53 36t37 52v951 q0 16 -36.5 52t-53.5 36h-559q-16 0 -52 -37t-36 -53v-197q0 -14 37 -52t51 -38h279v-373h-733v1125h647q16 0 52 35.5t36 52.5v200q0 25 -40 56.5t-67 31.5h-524q-27 0 -66.5 -31.5t-39.5 -58.5v-286h-279q-16 0 -53 -37t-37 -54v-946z" />
<glyph unicode="H" horiz-adv-x="1966" d="M0 -190q0 -51 60.5 -113t111.5 -62h190q53 0 113 59.5t60 112.5v576h569v-573q0 -51 60.5 -113t111.5 -62h190q53 0 112.5 59.5t59.5 112.5v1702q0 53 -59 112.5t-113 59.5h-190q-51 0 -111.5 -61t-60.5 -113v-575h-569v577q0 68 -74 123l2 -2q-63 51 -119 51h-154 q-66 0 -128 -55t-62 -119v-1697zM45 -190v1697q0 45 49 86t96 41h154q45 0 94 -41t49 -84v-624h664v622q0 31 47 79t78 48h190q31 0 79 -47t48 -78v-1702q0 -31 -48 -77.5t-79 -46.5h-190q-31 0 -78 48t-47 79v620h-664v-623q0 -31 -47 -77.5t-78 -46.5h-190q-31 0 -79 48 t-48 79zM82 -190q0 -14 38 -52.5t52 -38.5h190q14 0 51.5 37t37.5 51v660h737v-657q0 -14 37 -52.5t51 -38.5h190q16 0 53 36t37 52v1702q0 16 -36.5 52t-53.5 36h-190q-14 0 -51 -37.5t-37 -52.5v-659h-737v661q0 27 -39 57.5t-68 30.5h-154q-29 0 -68.5 -31.5t-39.5 -58.5 v-1697z" />
<glyph unicode="I" horiz-adv-x="1525" d="M0 6v-196q0 -51 57.5 -113t108.5 -62h897q51 0 108.5 59.5t57.5 112.5v201q0 51 -57.5 110.5t-108.5 59.5h-189v959h189q53 0 109.5 59t56.5 113v200q0 70 -72 123l2 -2q-61 51 -115 51h-860q-63 0 -123.5 -56t-60.5 -118v-196q0 -51 57.5 -112.5t108.5 -61.5h188v-959 h-188q-53 0 -109.5 -59.5t-56.5 -112.5zM45 6q0 33 44 79t77 46h233v1053h-233q-31 0 -76 48t-45 79v196q0 45 47 86t92 41h860q43 0 91.5 -41t48.5 -84v-200q0 -33 -44 -79t-77 -46h-234v-1053h234q33 0 77 -45t44 -78v-201q0 -31 -45 -77.5t-76 -46.5h-897q-31 0 -76 48 t-45 79v196zM80 6v-196q0 -12 37 -51.5t49 -39.5h897q14 0 50 37t36 51v201q0 14 -36 50t-50 36h-268v1127h268q16 0 51 35.5t35 52.5v200q0 25 -40 56.5t-65 31.5h-860q-29 0 -66.5 -30.5t-37.5 -59.5v-196q0 -12 37 -51t49 -39h268v-1127h-268q-18 0 -52 -34.5t-34 -53.5z " />
<glyph unicode="J" horiz-adv-x="1951" d="M0 184q0 -55 58.5 -114.5t113.5 -59.5h197v-200q0 -51 59 -113t111 -62h561q53 0 111.5 59.5t58.5 112.5v203h196q53 0 112.5 59.5t59.5 112.5v1327q0 63 -63.5 117.5t-126.5 54.5h-522q-63 0 -126 -55t-63 -119v-196q0 -57 56.5 -115.5t113.5 -58.5h195v-957h-567v578 q0 53 -59.5 112.5t-113.5 59.5h-190q-51 0 -111.5 -61.5t-60.5 -112.5v-572zM45 184v572q0 31 48 79t79 48h190q31 0 78 -47.5t47 -77.5v-625h662v1051h-242q-35 0 -80 46t-45 81v196q0 45 48.5 86t95.5 41h522q45 0 95 -41t50 -84v-1327q0 -35 -46 -80t-81 -45h-241v-250 q0 -29 -48.5 -76.5t-76.5 -47.5h-561q-29 0 -77 49t-48 78v247h-242q-35 0 -81 46.5t-46 80.5zM82 184q0 -18 36 -54t54 -36h279v-284q0 -14 36.5 -52.5t51.5 -38.5h561q14 0 51 37t37 51v287h278q18 0 54 35t36 53v1327q0 25 -40.5 56.5t-67.5 31.5h-522q-27 0 -67 -31.5 t-40 -58.5v-196q0 -18 35 -54t53 -36h279v-1125h-735v662q0 14 -37 51t-52 37h-190q-14 0 -52 -38t-38 -52v-572z" />
<glyph unicode="K" horiz-adv-x="1925" d="M0 -190q0 -51 60.5 -113t111.5 -62h190q53 0 113 59.5t60 112.5v576h202v-199q0 -55 57.5 -114.5t112.5 -59.5h197v-200q0 -51 60.5 -113t111.5 -62h190q53 0 112.5 59.5t59.5 112.5v201q0 51 -60 110.5t-112 59.5h-196v203q0 53 -58.5 113.5t-111.5 60.5h-197v207h197 q53 0 111.5 59.5t58.5 112.5v203h196q53 0 112.5 59t59.5 113v200q0 53 -59 112.5t-113 59.5h-190q-53 0 -112.5 -60t-59.5 -114v-200h-197q-53 0 -111.5 -61.5t-58.5 -115.5v-198h-202v577q0 68 -74 123l2 -2q-63 51 -119 51h-154q-66 0 -128 -55t-62 -119v-1697zM45 -190 v1697q0 45 49 86t96 41h154q45 0 94 -41t49 -84v-624h295v245q0 31 47.5 80.5t77.5 49.5h244v247q0 33 46 80t79 47h190q31 0 79 -47t48 -78v-200q0 -31 -48 -78t-79 -47h-241v-250q0 -33 -46 -80t-79 -47h-242v-299h242q31 0 78 -48t47 -79v-250h241q31 0 79 -46t48 -77 v-201q0 -31 -48 -77.5t-79 -46.5h-190q-31 0 -78 48t-47 79v247h-244q-37 0 -81 45t-44 82v246h-295v-623q0 -31 -47 -77.5t-78 -46.5h-190q-31 0 -79 48t-48 79zM82 -190q0 -14 38 -52.5t52 -38.5h190q14 0 51.5 37t37.5 51v660h368v-283q0 -20 34 -55t54 -35h281v-284 q0 -14 37 -52.5t51 -38.5h190q16 0 53 36t37 52v201q0 10 -36 51q-39 35 -54 35h-278v287q0 16 -36 52t-52 36h-279v377h279q20 0 54 33.5t34 54.5v287h278q16 0 53 35.5t37 52.5v200q0 16 -36.5 52t-53.5 36h-190q-16 0 -52 -36.5t-36 -53.5v-286h-281q-16 0 -52 -37 t-36 -54v-282h-368v661q0 27 -39 57.5t-68 30.5h-154q-29 0 -68.5 -31.5t-39.5 -58.5v-1697z" />
<glyph unicode="L" horiz-adv-x="1808" d="M0 184q0 -55 58.5 -114.5t113.5 -59.5h197v-200q0 -51 59 -113t111 -62h927q53 0 112.5 59.5t59.5 112.5v201q0 51 -60 110.5t-112 59.5h-931v1331q0 68 -74 123l2 -2q-63 51 -119 51h-154q-66 0 -128 -55t-62 -119v-1323zM45 184v1323q0 45 49 86t96 41h154q45 0 94 -41 t49 -84v-1378h979q31 0 79 -46t48 -77v-201q0 -31 -48 -77.5t-79 -46.5h-927q-29 0 -77 49t-48 78v247h-242q-35 0 -81 46.5t-46 80.5zM82 184q0 -18 36 -54t54 -36h279v-284q0 -14 36.5 -52.5t51.5 -38.5h927q16 0 53 36t37 52v201q0 10 -36 51q-39 35 -54 35h-1015v1415 q0 27 -39 57.5t-68 30.5h-154q-29 0 -68.5 -31.5t-39.5 -58.5v-1323z" />
<glyph unicode="M" horiz-adv-x="2375" d="M0 -190q0 -51 61.5 -113t112.5 -62h197q53 0 113.5 59.5t60.5 112.5v953h207v-201q0 -51 61 -112.5t113 -61.5h196q53 0 113.5 59.5t60.5 112.5v203h207v-950q0 -51 61.5 -113t112.5 -62h197q53 0 113.5 59.5t60.5 112.5v1702q0 53 -60.5 112.5t-113.5 59.5h-197 q-51 0 -112.5 -61t-61.5 -113v-200h-200q-53 0 -115 -61.5t-62 -115.5v-198h-204v201q0 51 -62.5 112.5t-114.5 61.5h-200v202q0 61 -64.5 116.5t-128.5 55.5h-159q-63 0 -128 -55t-65 -119v-1697zM47 -190v1697q0 45 49 86t97 41h159q45 0 95.5 -40t50.5 -85v-249h247 q33 0 81 -47.5t48 -79.5v-248h300v245q0 33 48 81.5t81 48.5h247v247q0 29 49.5 78t77.5 49h197q31 0 79 -47t48 -78v-1702q0 -31 -48 -77.5t-79 -46.5h-197q-29 0 -78 49t-49 78v997h-301v-250q0 -31 -48 -78t-79 -47h-196q-29 0 -78 49t-49 78v248h-301v-1000 q0 -31 -48.5 -77.5t-78.5 -46.5h-197q-29 0 -78 49t-49 78zM84 -190q0 -12 39 -51.5t51 -39.5h197q14 0 52 37t38 51v1037h375v-285q0 -12 38.5 -51t51.5 -39h196q14 0 52 37t38 51v287h375v-1034q0 -12 39 -51.5t51 -39.5h197q14 0 52 37t38 51v1702q0 14 -38 51t-52 37 h-197q-12 0 -51 -38.5t-39 -51.5v-286h-284q-18 0 -54.5 -36t-36.5 -55v-282h-376v285q0 18 -36 53t-55 35h-284v288q0 25 -41 56.5t-68 31.5h-159q-29 0 -69 -31.5t-40 -58.5v-1697z" />
<glyph unicode="N" horiz-adv-x="1966" d="M0 -190q0 -51 60.5 -113t111.5 -62h190q53 0 113 59.5t60 112.5v953h202v-201q0 -57 56.5 -115.5t113.5 -58.5h197v-575q0 -51 60.5 -113t111.5 -62h190q53 0 112.5 59.5t59.5 112.5v1702q0 53 -59 112.5t-113 59.5h-190q-53 0 -112.5 -60t-59.5 -114v-575h-203v201 q0 53 -58.5 113.5t-111.5 60.5h-196v202q0 63 -63.5 117.5t-127.5 54.5h-154q-66 0 -128 -55t-62 -119v-1697zM45 -190v1697q0 45 49 86t96 41h154q45 0 94 -41t49 -84v-249h244q33 0 79 -47.5t46 -79.5v-248h295v622q0 33 46 80t79 47h190q31 0 79 -47t48 -78v-1702 q0 -31 -48 -77.5t-79 -46.5h-190q-31 0 -78 48t-47 79v622h-244q-35 0 -80 46t-45 81v248h-295v-1000q0 -31 -47 -77.5t-78 -46.5h-190q-31 0 -79 48t-48 79zM82 -190q0 -14 38 -52.5t52 -38.5h190q14 0 51.5 37t37.5 51v1037h368v-285q0 -18 35 -54t53 -36h281v-659 q0 -14 37 -52.5t51 -38.5h190q16 0 53 36t37 52v1702q0 16 -36.5 52t-53.5 36h-190q-16 0 -52 -36.5t-36 -53.5v-659h-369v285q0 16 -35.5 52t-52.5 36h-280v288q0 27 -39 57.5t-68 30.5h-154q-29 0 -68.5 -31.5t-39.5 -58.5v-1697z" />
<glyph unicode="O" horiz-adv-x="1937" d="M0 184q0 -55 58.5 -114.5t113.5 -59.5h197v-200q0 -51 59 -113t111 -62h561q51 0 110.5 60.5t59.5 111.5v203h196q53 0 112.5 59.5t59.5 112.5v951q0 51 -60 112.5t-112 61.5h-196v202q0 70 -74 123l2 -2q-63 51 -117 51h-524q-63 0 -125.5 -55t-62.5 -119v-200h-197 q-51 0 -111.5 -62.5t-60.5 -114.5v-946zM45 184v946q0 31 48 80.5t79 49.5h242v247q0 45 48 86t95 41h524q45 0 94.5 -41t49.5 -84v-249h241q31 0 79 -48.5t48 -78.5v-951q0 -33 -47 -79t-80 -46h-241v-250q0 -29 -48.5 -76.5t-76.5 -47.5h-561q-29 0 -77 49t-48 78v247 h-242q-35 0 -81 46.5t-46 80.5zM82 184q0 -18 36 -54t54 -36h279v-284q0 -14 36.5 -52.5t51.5 -38.5h561q14 0 51 37t37 51v287h278q18 0 54 35t36 53v951q0 18 -35.5 53t-54.5 35h-278v288q0 25 -40 56.5t-67 31.5h-524q-27 0 -66.5 -31.5t-39.5 -58.5v-286h-279 q-16 0 -53 -37t-37 -54v-946zM453 96v1123h733v-1123h-733zM489 133h660v1049h-660v-1049zM537 180v955h565v-955h-565z" />
<glyph unicode="P" horiz-adv-x="1894" d="M0 -190q0 -51 60.5 -113t111.5 -62h190q53 0 113 59.5t60 112.5v203h565q53 0 111.5 59.5t58.5 112.5v203h196q53 0 112.5 59.5t59.5 112.5v576q0 51 -60 112.5t-112 61.5h-196v202q0 70 -74 123l2 -2q-63 51 -117 51h-524q-63 0 -125.5 -55t-62.5 -119v-200h-197 q-53 0 -112.5 -61.5t-59.5 -115.5v-1320zM45 -190v1320q0 33 47 81.5t80 48.5h242v247q0 45 48 86t95 41h524q45 0 94.5 -41t49.5 -84v-249h241q31 0 79 -48.5t48 -78.5v-576q0 -31 -48 -78t-79 -47h-241v-250q0 -33 -46 -79t-79 -46h-613v-250q0 -31 -47 -77.5t-78 -46.5 h-190q-31 0 -79 48t-48 79zM82 -190q0 -14 38 -52.5t52 -38.5h190q14 0 51.5 37t37.5 51v287h649q20 0 54 34t34 54v287h278q16 0 53 36t37 52v576q0 18 -35.5 53t-54.5 35h-278v288q0 25 -40 56.5t-67 31.5h-524q-27 0 -66.5 -31.5t-39.5 -58.5v-286h-279q-18 0 -54 -36 t-36 -55v-1320zM453 471v748h733v-748h-733zM489 510h660v672h-660v-672zM537 557v578h565v-578h-565z" />
<glyph unicode="Q" horiz-adv-x="1951" d="M0 184q0 -55 58.5 -114.5t113.5 -59.5h197v-200q0 -51 59 -113t111 -62h927q53 0 112.5 59.5t59.5 112.5v1326q0 51 -60 112.5t-112 61.5h-196v202q0 61 -63.5 116.5t-125.5 55.5h-524q-63 0 -125.5 -55t-62.5 -119v-200h-197q-51 0 -111.5 -62.5t-60.5 -114.5v-946z M45 184v946q0 31 48 80.5t79 49.5h242v247q0 45 48 86t95 41h524q45 0 94.5 -41t49.5 -84v-249h241q31 0 79 -48.5t48 -78.5v-1326q0 -31 -48 -77.5t-79 -46.5h-927q-29 0 -77 49t-48 78v247h-242q-35 0 -81 46.5t-46 80.5zM82 184q0 -18 36 -54t54 -36h279v-284 q0 -14 36.5 -52.5t51.5 -38.5h927q16 0 53 36t37 52v1326q0 18 -35.5 53t-54.5 35h-278v288q0 25 -40 56.5t-67 31.5h-524q-27 0 -66.5 -31.5t-39.5 -58.5v-286h-279q-16 0 -53 -37t-37 -54v-946zM453 96v1123h733v-750h-279q-18 0 -53 -35t-35 -53v-285h-366zM489 133h293 v248q0 35 46 81t79 46h242v674h-660v-1049zM537 180v955h565v-580h-195q-55 0 -112.5 -59.5t-57.5 -114.5v-201h-200z" />
<glyph unicode="R" horiz-adv-x="1943" d="M0 -190q0 -51 60.5 -113t111.5 -62h190q53 0 113 59.5t60 112.5v201h569v-198q0 -51 60.5 -113t111.5 -62h190q53 0 112.5 59.5t59.5 112.5v201q0 51 -60 110.5t-112 59.5h-194v207h194q53 0 112.5 59.5t59.5 112.5v576q0 51 -60 112.5t-112 61.5h-196v202 q0 61 -63.5 116.5t-125.5 55.5h-891q-66 0 -128 -55t-62 -119v-1697zM45 -190v1697q0 45 49 86t96 41h891q45 0 94.5 -41t49.5 -84v-249h241q31 0 79 -48.5t48 -78.5v-576q0 -31 -48 -78t-79 -47h-239v-301h239q31 0 79 -46t48 -77v-201q0 -31 -48 -77.5t-79 -46.5h-190 q-31 0 -78 48t-47 79v245h-664v-248q0 -31 -47 -77.5t-78 -46.5h-190q-31 0 -79 48t-48 79zM82 -190q0 -14 38 -52.5t52 -38.5h190q14 0 51.5 37t37.5 51v285h737v-282q0 -14 37 -52.5t51 -38.5h190q16 0 53 36t37 52v201q0 10 -36 51q-39 35 -54 35h-276v375h276 q16 0 53 36t37 52v576q0 18 -35.5 53t-54.5 35h-278v288q0 25 -40 56.5t-67 31.5h-891q-29 0 -68.5 -31.5t-39.5 -58.5v-1697zM453 471v748h733v-748h-733zM489 510h660v672h-660v-672zM537 557v578h565v-578h-565z" />
<glyph unicode="S" horiz-adv-x="1918" d="M0 6v-196q0 -51 60.5 -113t111.5 -62h928q51 0 110.5 60.5t59.5 111.5v203h196q53 0 112.5 59.5t59.5 112.5v199q0 51 -60 112.5t-112 61.5h-196v203q0 53 -58.5 112.5t-111.5 59.5h-563v207h929q53 0 112.5 59t59.5 113v200q0 63 -63.5 117.5t-126.5 54.5h-891 q-63 0 -125.5 -55t-62.5 -119v-200h-197q-51 0 -111.5 -62.5t-60.5 -114.5v-194q0 -55 58.5 -114.5t113.5 -59.5h197v-203q0 -51 59 -112.5t111 -61.5h563v-207h-930q-53 0 -112.5 -59.5t-59.5 -112.5zM45 6q0 33 47 79t80 46h977v301h-610q-29 0 -77 49t-48 78v248h-242 q-35 0 -81 47t-46 82v194q0 31 48 80.5t79 49.5h242v247q0 45 48 86t95 41h891q45 0 95 -41t50 -84v-200q0 -33 -47 -79t-80 -46h-977v-301h611q29 0 77 -48.5t48 -76.5v-250h241q31 0 79 -48t48 -79v-199q0 -33 -47 -79t-80 -46h-241v-250q0 -29 -48.5 -76.5t-76.5 -47.5 h-928q-31 0 -79 48t-48 79v196zM82 6v-196q0 -14 38 -52.5t52 -38.5h928q14 0 51 37t37 51v287h278q18 0 54 35t36 53v199q0 18 -35.5 53t-54.5 35h-278v289q0 14 -37 51t-51 37h-647v375h1013q16 0 53 35.5t37 52.5v200q0 25 -40.5 56.5t-67.5 31.5h-891q-27 0 -66.5 -31.5 t-39.5 -58.5v-286h-279q-16 0 -53 -37t-37 -54v-194q0 -18 36 -54t54 -36h279v-287q0 -14 36.5 -52t51.5 -38h647v-375h-1014q-18 0 -54 -34.5t-36 -53.5z" />
<glyph unicode="T" horiz-adv-x="1695" d="M0 1311q0 -55 56.5 -114.5t111.5 -59.5h287v-1327q0 -53 57 -114t111 -61h188q51 0 109.5 60.5t58.5 111.5v1330h287q53 0 110.5 59.5t57.5 112.5v200q0 68 -72 123v-2q-61 51 -115 51h-1061q-63 0 -124.5 -56t-61.5 -118v-196zM45 1311v196q0 45 48 86t93 41h1061 q43 0 92.5 -41t49.5 -84v-200q0 -33 -45.5 -79t-77.5 -46h-332v-1377q0 -31 -46 -77.5t-77 -46.5h-188q-29 0 -76 49t-47 78v1374h-332q-33 0 -78 47t-45 80zM82 1311q0 -16 35 -53t51 -37h367v-1411q0 -14 36.5 -52.5t51.5 -38.5h188q14 0 51 37t37 51v1414h367q16 0 51 36 t35 52v200q0 25 -40 56.5t-65 31.5h-1061q-29 0 -66.5 -30.5t-37.5 -59.5v-196z" />
<glyph unicode="U" horiz-adv-x="1951" d="M0 184q0 -55 58.5 -114.5t113.5 -59.5h197v-200q0 -51 59 -113t111 -62h561q51 0 110.5 60.5t59.5 111.5v203h196q53 0 112.5 59.5t59.5 112.5v1327q0 53 -59 112.5t-113 59.5h-190q-51 0 -111.5 -61t-60.5 -113v-1327h-569v1329q0 63 -63.5 117.5t-127.5 54.5h-154 q-66 0 -128 -55t-62 -119v-1323zM45 184v1323q0 45 49 86t96 41h154q45 0 94 -41t49 -84v-1376h664v1374q0 31 47 79t78 48h190q31 0 79 -47t48 -78v-1327q0 -33 -47 -79t-80 -46h-241v-250q0 -29 -48.5 -76.5t-76.5 -47.5h-561q-29 0 -77 49t-48 78v247h-242 q-35 0 -81 46.5t-46 80.5zM82 184q0 -18 36 -54t54 -36h279v-284q0 -14 36.5 -52.5t51.5 -38.5h561q14 0 51 37t37 51v287h278q18 0 54 35t36 53v1327q0 16 -36.5 52t-53.5 36h-190q-14 0 -51 -37.5t-37 -52.5v-1411h-737v1413q0 27 -39 57.5t-68 30.5h-154 q-29 0 -68.5 -31.5t-39.5 -58.5v-1323z" />
<glyph unicode="V" horiz-adv-x="2332" d="M0 559q0 -51 61.5 -112.5t112.5 -61.5h201v-201q0 -55 60.5 -114.5t115.5 -59.5h201v-200q0 -51 61 -113t113 -62h196q53 0 113.5 59.5t60.5 112.5v203h201q55 0 115.5 58.5t60.5 113.5v203h201q53 0 113.5 59.5t60.5 112.5v952q0 53 -60.5 112.5t-113.5 59.5h-197 q-51 0 -112.5 -61t-61.5 -113v-952h-200q-53 0 -115 -61.5t-62 -114.5v-199h-204v201q0 51 -62.5 112.5t-114.5 61.5h-200v954q0 61 -64.5 116.5t-128.5 55.5h-159q-63 0 -128 -55t-65 -119v-948zM47 559v948q0 45 49 86t97 41h159q45 0 95.5 -40t50.5 -85v-1001h247 q33 0 81 -47t48 -80v-248h300v246q0 33 48 81t81 48h247v999q0 29 49.5 78t77.5 49h197q31 0 79 -47t48 -78v-952q0 -31 -48 -78t-79 -47h-248v-250q0 -35 -47 -80t-82 -45h-248v-250q0 -31 -48 -77.5t-79 -46.5h-196q-29 0 -78 49t-49 78v247h-248q-37 0 -83 45t-46 82v248 h-248q-29 0 -78 49t-49 78zM84 559q0 -12 39 -51t51 -39h287v-285q0 -20 34.5 -55t55.5 -35h285v-284q0 -12 38.5 -51.5t51.5 -39.5h196q14 0 52 37t38 51v287h285q20 0 55 34t35 54v287h287q14 0 52 37t38 51v952q0 14 -38 51t-52 37h-197q-12 0 -51 -38.5t-39 -51.5v-1038 h-284q-18 0 -54.5 -36t-36.5 -54v-283h-376v285q0 18 -36 53t-55 35h-284v1040q0 25 -41 56.5t-68 31.5h-159q-29 0 -69 -31.5t-40 -58.5v-948z" />
<glyph unicode="W" horiz-adv-x="2375" d="M0 -190q0 -51 61.5 -113t112.5 -62h197q53 0 113.5 59.5t60.5 112.5v203h200q53 0 115 59.5t62 112.5v201h204v-199q0 -55 60.5 -114.5t116.5 -59.5h200v-200q0 -51 61.5 -113t112.5 -62h197q53 0 113.5 59.5t60.5 112.5v1702q0 53 -60.5 112.5t-113.5 59.5h-197 q-53 0 -113.5 -60t-60.5 -114v-950h-207v201q0 53 -60 112.5t-114 59.5h-196q-51 0 -112.5 -61.5t-61.5 -112.5v-199h-207v952q0 61 -64.5 116.5t-128.5 55.5h-159q-63 0 -128 -55t-65 -119v-1697zM47 -190v1697q0 45 49 86t97 41h159q45 0 95.5 -40t50.5 -85v-999h301v246 q0 29 49 78t78 49h196q31 0 79 -47.5t48 -77.5v-248h301v997q0 31 48.5 79t78.5 48h197q31 0 79 -47t48 -78v-1702q0 -31 -48 -77.5t-79 -46.5h-197q-29 0 -78 49t-49 78v247h-247q-37 0 -83 45t-46 82v246h-300v-248q0 -33 -48 -79t-81 -46h-247v-250q0 -31 -48.5 -77.5 t-78.5 -46.5h-197q-29 0 -78 49t-49 78zM84 -190q0 -12 39 -51.5t51 -39.5h197q14 0 52 37t38 51v287h284q18 0 54.5 35t36.5 53v285h376v-283q0 -20 35 -55t56 -35h284v-284q0 -12 39 -51.5t51 -39.5h197q14 0 52 37t38 51v1702q0 14 -38 51t-52 37h-197q-14 0 -52 -37.5 t-38 -52.5v-1036h-375v287q0 14 -37.5 51t-52.5 37h-196q-14 0 -52 -38t-38 -52v-285h-375v1038q0 25 -41 56.5t-68 31.5h-159q-29 0 -69 -31.5t-40 -58.5v-1697z" />
<glyph unicode="X" horiz-adv-x="2334" d="M0 6v-196q0 -51 61.5 -113t112.5 -62h197q53 0 113.5 59.5t60.5 112.5v203h200q53 0 115 59.5t62 112.5v201h204v-199q0 -55 60.5 -114.5t116.5 -59.5h200v-200q0 -51 61.5 -113t112.5 -62h197q53 0 113.5 59.5t60.5 112.5v201q0 53 -60.5 111.5t-113.5 58.5h-201v203 q0 51 -62.5 112.5t-113.5 61.5h-199v207h199q55 0 115.5 58.5t60.5 113.5v203h201q53 0 113.5 59t60.5 113v200q0 53 -60.5 112.5t-113.5 59.5h-197q-51 0 -112.5 -61t-61.5 -113v-200h-200q-53 0 -115 -61.5t-62 -115.5v-198h-204v201q0 51 -62.5 112.5t-114.5 61.5h-200 v202q0 61 -64.5 116.5t-128.5 55.5h-159q-63 0 -128 -55t-65 -119v-196q0 -51 61.5 -112.5t112.5 -61.5h201v-201q0 -55 60.5 -114.5t115.5 -59.5h199v-207h-199q-49 0 -112.5 -63.5t-63.5 -112.5v-201h-201q-55 0 -114.5 -58.5t-59.5 -113.5zM47 6q0 33 47 79t80 46h248 v248q0 31 49 80t80 49h246v299h-246q-35 0 -82 47t-47 82v248h-248q-29 0 -78 49t-49 78v196q0 45 49 86t97 41h159q45 0 95.5 -40t50.5 -85v-249h247q33 0 81 -47.5t48 -79.5v-248h300v245q0 33 48 81.5t81 48.5h247v247q0 29 49.5 78t77.5 49h197q31 0 79 -47t48 -78v-200 q0 -31 -48 -78t-79 -47h-248v-250q0 -35 -47 -81t-82 -46h-246v-299h246q33 0 81 -47t48 -80v-250h248q31 0 79 -46t48 -77v-201q0 -31 -48 -77.5t-79 -46.5h-197q-29 0 -78 49t-49 78v247h-247q-37 0 -83 45t-46 82v246h-300v-248q0 -33 -48 -79t-81 -46h-247v-250 q0 -31 -48.5 -77.5t-78.5 -46.5h-197q-29 0 -78 49t-49 78v196zM84 6v-196q0 -12 39 -51.5t51 -39.5h197q14 0 52 37t38 51v287h284q18 0 54.5 35t36.5 53v285h376v-283q0 -20 35 -55t56 -35h284v-284q0 -12 39 -51.5t51 -39.5h197q14 0 52 37t38 51v201q0 14 -38 50t-52 36 h-287v287q0 18 -35.5 53t-54.5 35h-283v377h283q20 0 55 33.5t35 54.5v287h287q14 0 52 36.5t38 51.5v200q0 14 -38 51t-52 37h-197q-12 0 -51 -38.5t-39 -51.5v-286h-284q-18 0 -54.5 -36t-36.5 -55v-282h-376v285q0 18 -36 53t-55 35h-284v288q0 25 -41 56.5t-68 31.5 h-159q-29 0 -69 -31.5t-40 -58.5v-196q0 -12 39 -51t51 -39h287v-285q0 -20 34.5 -55t55.5 -35h283v-377h-283q-16 0 -53 -37t-37 -53v-285h-287q-16 0 -53 -35.5t-37 -52.5z" />
<glyph unicode="Y" horiz-adv-x="2308" d="M0 936q0 -51 61.5 -112.5t112.5 -61.5h201v-203q0 -55 60.5 -114.5t115.5 -59.5h201v-575q0 -51 61 -113t113 -62h196q53 0 113.5 59.5t60.5 112.5v578h201q53 0 114.5 59.5t61.5 112.5v205h201q53 0 113.5 59.5t60.5 112.5v575q0 53 -60.5 112.5t-113.5 59.5h-197 q-51 0 -112.5 -61t-61.5 -113v-575h-958v577q0 61 -64.5 116.5t-128.5 55.5h-159q-63 0 -128 -55t-65 -119v-571zM47 936v571q0 45 49 86t97 41h159q45 0 95.5 -40t50.5 -85v-624h1052v622q0 29 49.5 78t77.5 49h197q31 0 79 -47t48 -78v-575q0 -31 -48 -79t-79 -48h-248 v-250q0 -33 -48 -79t-81 -46h-248v-625q0 -31 -48 -77.5t-79 -46.5h-196q-29 0 -78 49t-49 78v622h-248q-35 0 -82 46t-47 81v248h-248q-31 0 -79 49t-48 80zM84 936q0 -14 38 -52t52 -38h287v-287q0 -18 35.5 -54t54.5 -36h285v-659q0 -12 38.5 -51.5t51.5 -39.5h196 q14 0 52 37t38 51v662h285q18 0 54 35t36 53v289h287q16 0 53 36t37 52v575q0 14 -38 51t-52 37h-197q-12 0 -51 -38.5t-39 -51.5v-659h-1126v661q0 25 -41 56.5t-68 31.5h-159q-29 0 -69 -31.5t-40 -58.5v-571z" />
<glyph unicode="Z" horiz-adv-x="1933" d="M0 -190q0 -51 60.5 -113t111.5 -62h1294q53 0 112.5 59.5t59.5 112.5v201q0 51 -60 110.5t-112 59.5h-929v207h563q53 0 111.5 59.5t58.5 112.5v205h196q53 0 112.5 59.5t59.5 112.5v575q0 63 -63.5 117.5t-126.5 54.5h-1258q-66 0 -128 -55t-62 -119v-196 q0 -55 58.5 -114.5t113.5 -59.5h930v-207h-563q-53 0 -111.5 -60.5t-58.5 -113.5v-201h-197q-53 0 -112.5 -61.5t-59.5 -114.5v-569zM45 -190v569q0 33 47 81t80 48h242v248q0 29 48 78t77 49h610v301h-977q-33 0 -80 47t-47 80v196q0 45 49 86t96 41h1258q45 0 95 -41 t50 -84v-575q0 -33 -47 -80t-80 -47h-241v-250q0 -31 -47.5 -78t-77.5 -47h-611v-301h977q31 0 79 -46t48 -77v-201q0 -31 -48 -77.5t-79 -46.5h-1294q-31 0 -79 48t-48 79zM82 -190q0 -14 38 -52.5t52 -38.5h1294q16 0 53 36t37 52v201q0 10 -36 51q-39 35 -54 35h-1013 v375h647q14 0 51 37t37 51v289h278q18 0 54 34.5t36 53.5v575q0 25 -40.5 56.5t-67.5 31.5h-1258q-29 0 -68.5 -31.5t-39.5 -58.5v-196q0 -18 36 -54t54 -36h1014v-375h-647q-14 0 -51 -38t-37 -52v-287h-279q-18 0 -54 -36t-36 -54v-569z" />
<glyph unicode="[" horiz-adv-x="983" />
<glyph unicode="\" horiz-adv-x="983" />
<glyph unicode="]" horiz-adv-x="983" />
<glyph unicode="^" horiz-adv-x="983" />
<glyph unicode="_" horiz-adv-x="983" />
<glyph unicode="`" horiz-adv-x="983" />
<glyph unicode="a" horiz-adv-x="1951" d="M0 -190q0 -51 60.5 -113t111.5 -62h190q53 0 113 59.5t60 112.5v201h569v-198q0 -51 60.5 -113t111.5 -62h190q53 0 112.5 59.5t59.5 112.5v1326q0 51 -60 112.5t-112 61.5h-196v202q0 70 -74 123l2 -2q-63 51 -117 51h-524q-63 0 -125.5 -55t-62.5 -119v-200h-197 q-53 0 -112.5 -61.5t-59.5 -115.5v-1320zM45 -190v1320q0 33 47 81.5t80 48.5h242v247q0 45 48 86t95 41h524q45 0 94.5 -41t49.5 -84v-249h241q31 0 79 -48.5t48 -78.5v-1326q0 -31 -48 -77.5t-79 -46.5h-190q-31 0 -78 48t-47 79v245h-664v-248q0 -31 -47 -77.5t-78 -46.5 h-190q-31 0 -79 48t-48 79zM82 -190q0 -14 38 -52.5t52 -38.5h190q14 0 51.5 37t37.5 51v285h737v-282q0 -14 37 -52.5t51 -38.5h190q16 0 53 36t37 52v1326q0 18 -35.5 53t-54.5 35h-278v288q0 25 -40 56.5t-67 31.5h-524q-27 0 -66.5 -31.5t-39.5 -58.5v-286h-279 q-18 0 -54 -36t-36 -55v-1320zM453 471v748h733v-748h-733zM489 510h660v672h-660v-672zM537 557v578h565v-578h-565z" />
<glyph unicode="b" horiz-adv-x="1929" d="M0 -188v1695q0 63 62.5 118.5t127.5 55.5h891q61 0 125 -56t64 -116v-202h196q49 0 110.5 -62.5t61.5 -111.5v-199q0 -53 -59 -112.5t-113 -59.5h-194v-207h194q49 0 110.5 -62.5t61.5 -111.5v-199q0 -53 -59 -112.5t-113 -59.5h-196v-200q0 -51 -59.5 -111.5 t-110.5 -60.5h-928q-53 0 -112.5 60t-59.5 114zM45 -188q0 -31 48 -79t79 -48h928q27 0 76 49t49 76v247h241q33 0 80 46t47 79v199q0 31 -48 79t-79 48h-239v299h239q31 0 79 48t48 79v199q0 31 -48 79t-79 48h-241v249q0 41 -51.5 83t-92.5 42h-891q-47 0 -96 -41t-49 -86 v-1695zM82 -188v1695q0 27 40 58.5t68 31.5h891q27 0 67 -31.5t40 -56.5v-288h278q18 0 54 -35t36 -53v-199q0 -18 -35.5 -53t-54.5 -35h-276v-377h276q18 0 54 -35t36 -53v-199q0 -18 -35.5 -53t-54.5 -35h-278v-284q0 -14 -37 -51.5t-51 -37.5h-928q-14 0 -52 38t-38 53z M453 96h733v371h-733v-371zM453 848h733v371h-733v-371zM489 133v297h660v-297h-660zM489 885v297h660v-297h-660zM537 180h565v203h-565v-203zM537 932h565v203h-565v-203z" />
<glyph unicode="c" horiz-adv-x="1918" d="M0 184q0 -55 58.5 -114.5t113.5 -59.5h197v-200q0 -51 59 -113t111 -62h561q51 0 110.5 60.5t59.5 111.5v203h196q53 0 112.5 59.5t59.5 112.5v199q0 51 -60 112.5t-112 61.5h-190q-53 0 -112.5 -61.5t-59.5 -114.5v-199h-567v955h567v-199q0 -51 60.5 -112.5 t111.5 -61.5h190q53 0 112.5 59.5t59.5 112.5v199q0 51 -60 112.5t-112 61.5h-196v202q0 61 -63.5 116.5t-125.5 55.5h-524q-63 0 -125.5 -55t-62.5 -119v-200h-197q-51 0 -111.5 -62.5t-60.5 -114.5v-946zM45 184v946q0 31 48 80.5t79 49.5h242v247q0 45 48 86t95 41h524 q45 0 94.5 -41t49.5 -84v-249h241q31 0 79 -48.5t48 -78.5v-199q0 -31 -48 -79t-79 -48h-190q-31 0 -78 49t-47 80v246h-662v-1049h662v246q0 33 46 81t79 48h190q31 0 79 -48t48 -79v-199q0 -33 -47 -79t-80 -46h-241v-250q0 -29 -48.5 -76.5t-76.5 -47.5h-561 q-29 0 -77 49t-48 78v247h-242q-35 0 -81 46.5t-46 80.5zM82 184q0 -18 36 -54t54 -36h279v-284q0 -14 36.5 -52.5t51.5 -38.5h561q14 0 51 37t37 51v287h278q18 0 54 35t36 53v199q0 18 -35.5 53t-54.5 35h-190q-18 0 -53 -36t-35 -54v-283h-735v1123h735v-283 q0 -16 36 -53t52 -37h190q18 0 54 34.5t36 53.5v199q0 18 -35.5 53t-54.5 35h-278v288q0 25 -40 56.5t-67 31.5h-524q-27 0 -66.5 -31.5t-39.5 -58.5v-286h-279q-16 0 -53 -37t-37 -54v-946z" />
<glyph unicode="d" horiz-adv-x="1937" d="M0 -190q0 -51 60.5 -113t111.5 -62h928q51 0 110.5 60.5t59.5 111.5v203h196q53 0 112.5 59.5t59.5 112.5v951q0 51 -60 112.5t-112 61.5h-196v202q0 70 -74 123l2 -2q-63 51 -117 51h-891q-66 0 -128 -55t-62 -119v-1697zM45 -190v1697q0 45 49 86t96 41h891 q45 0 94.5 -41t49.5 -84v-249h241q31 0 79 -48.5t48 -78.5v-951q0 -33 -47 -79t-80 -46h-241v-250q0 -29 -48.5 -76.5t-76.5 -47.5h-928q-31 0 -79 48t-48 79zM82 -190q0 -14 38 -52.5t52 -38.5h928q14 0 51 37t37 51v287h278q18 0 54 35t36 53v951q0 18 -35.5 53t-54.5 35 h-278v288q0 25 -40 56.5t-67 31.5h-891q-29 0 -68.5 -31.5t-39.5 -58.5v-1697zM453 96v1123h733v-1123h-733zM489 133h660v1049h-660v-1049zM537 180v955h565v-955h-565z" />
<glyph unicode="e" horiz-adv-x="1906" d="M0 184q0 -55 58.5 -114.5t113.5 -59.5h197v-200q0 -51 59 -113t111 -62h927q53 0 112.5 59.5t59.5 112.5v201q0 51 -60 110.5t-112 59.5h-929v207h563q53 0 111.5 59.5t58.5 112.5v201q0 53 -58.5 112.5t-111.5 59.5h-563v207h929q53 0 112.5 59t59.5 113v200 q0 68 -73 123l2 -2q-63 51 -119 51h-891q-63 0 -125.5 -55t-62.5 -119v-200h-197q-51 0 -111.5 -62.5t-60.5 -114.5v-946zM45 184v946q0 31 48 80.5t79 49.5h242v247q0 45 48 86t95 41h891q45 0 95 -41t50 -84v-200q0 -33 -47 -79t-80 -46h-977v-301h611q29 0 77 -48.5 t48 -76.5v-201q0 -31 -47.5 -78t-77.5 -47h-611v-301h977q31 0 79 -46t48 -77v-201q0 -31 -48 -77.5t-79 -46.5h-927q-29 0 -77 49t-48 78v247h-242q-35 0 -81 46.5t-46 80.5zM82 184q0 -18 36 -54t54 -36h279v-284q0 -14 36.5 -52.5t51.5 -38.5h927q16 0 53 36t37 52v201 q0 10 -36 51q-39 35 -54 35h-1013v375h647q14 0 51 37t37 51v201q0 14 -37 51t-51 37h-647v375h1013q16 0 53 35.5t37 52.5v200q0 25 -40.5 56.5t-67.5 31.5h-891q-27 0 -66.5 -31.5t-39.5 -58.5v-286h-279q-16 0 -53 -37t-37 -54v-946z" />
<glyph unicode="f" horiz-adv-x="1845" d="M0 -190q0 -51 60.5 -113t111.5 -62h190q51 0 112 60.5t61 111.5v578h565q53 0 111.5 59.5t58.5 112.5v201q0 53 -58.5 112.5t-111.5 59.5h-563v207h929q53 0 112.5 59.5t59.5 112.5v200q0 68 -73 123l2 -2q-63 51 -119 51h-891q-63 0 -125.5 -55t-62.5 -119v-200h-197 q-53 0 -112.5 -61.5t-59.5 -115.5v-1320zM45 -190v1320q0 33 47 81.5t80 48.5h242v247q0 45 48 86t95 41h891q45 0 95 -41t50 -84v-200q0 -33 -47 -79t-80 -46h-977v-301h611q29 0 77 -48.5t48 -76.5v-201q0 -31 -47.5 -78t-77.5 -47h-613v-625q0 -31 -47 -77.5t-78 -46.5 h-190q-31 0 -79 48t-48 79zM82 -190q0 -14 38 -52.5t52 -38.5h190q14 0 51.5 37t37.5 51v662h649q14 0 51 37t37 51v201q0 14 -37 51t-51 37h-647v375h1013q16 0 53 36t37 52v200q0 25 -40.5 56.5t-67.5 31.5h-891q-27 0 -66.5 -31.5t-39.5 -58.5v-286h-279q-18 0 -54 -36 t-36 -55v-1320z" />
<glyph unicode="g" horiz-adv-x="1927" d="M0 184q0 -55 58.5 -114.5t113.5 -59.5h197v-200q0 -51 59 -113t111 -62h927q53 0 112.5 59.5t59.5 112.5v951q0 53 -59 112.5t-113 59.5h-559q-55 0 -112.5 -59.5t-57.5 -114.5v-197q0 -51 59.5 -112.5t110.5 -61.5h195v-205h-565v957h563q53 0 111.5 59t58.5 113v200 q0 70 -74 123l2 -2q-63 51 -117 51h-524q-63 0 -125.5 -55t-62.5 -119v-200h-197q-51 0 -111.5 -62.5t-60.5 -114.5v-946zM45 184v946q0 31 48 80.5t79 49.5h242v247q0 45 48 86t95 41h524q45 0 94.5 -41t49.5 -84v-200q0 -31 -47.5 -78t-77.5 -47h-611v-1051h660v299h-242 q-31 0 -78 48t-47 79v197q0 33 46 80t79 47h559q31 0 79 -47.5t48 -77.5v-951q0 -31 -48 -77.5t-79 -46.5h-927q-29 0 -77 49t-48 78v247h-242q-35 0 -81 46.5t-46 80.5zM82 184q0 -18 36 -54t54 -36h279v-284q0 -14 36.5 -52.5t51.5 -38.5h927q16 0 53 36t37 52v951 q0 16 -36.5 52t-53.5 36h-559q-16 0 -52 -37t-36 -53v-197q0 -14 37 -52t51 -38h279v-373h-733v1125h647q16 0 52 35.5t36 52.5v200q0 25 -40 56.5t-67 31.5h-524q-27 0 -66.5 -31.5t-39.5 -58.5v-286h-279q-16 0 -53 -37t-37 -54v-946z" />
<glyph unicode="h" horiz-adv-x="1966" d="M0 -190q0 -51 60.5 -113t111.5 -62h190q53 0 113 59.5t60 112.5v576h569v-573q0 -51 60.5 -113t111.5 -62h190q53 0 112.5 59.5t59.5 112.5v1702q0 53 -59 112.5t-113 59.5h-190q-51 0 -111.5 -61t-60.5 -113v-575h-569v577q0 68 -74 123l2 -2q-63 51 -119 51h-154 q-66 0 -128 -55t-62 -119v-1697zM45 -190v1697q0 45 49 86t96 41h154q45 0 94 -41t49 -84v-624h664v622q0 31 47 79t78 48h190q31 0 79 -47t48 -78v-1702q0 -31 -48 -77.5t-79 -46.5h-190q-31 0 -78 48t-47 79v620h-664v-623q0 -31 -47 -77.5t-78 -46.5h-190q-31 0 -79 48 t-48 79zM82 -190q0 -14 38 -52.5t52 -38.5h190q14 0 51.5 37t37.5 51v660h737v-657q0 -14 37 -52.5t51 -38.5h190q16 0 53 36t37 52v1702q0 16 -36.5 52t-53.5 36h-190q-14 0 -51 -37.5t-37 -52.5v-659h-737v661q0 27 -39 57.5t-68 30.5h-154q-29 0 -68.5 -31.5t-39.5 -58.5 v-1697z" />
<glyph unicode="i" horiz-adv-x="1525" d="M0 6v-196q0 -51 57.5 -113t108.5 -62h897q51 0 108.5 59.5t57.5 112.5v201q0 51 -57.5 110.5t-108.5 59.5h-189v959h189q53 0 109.5 59t56.5 113v200q0 70 -72 123l2 -2q-61 51 -115 51h-860q-63 0 -123.5 -56t-60.5 -118v-196q0 -51 57.5 -112.5t108.5 -61.5h188v-959 h-188q-53 0 -109.5 -59.5t-56.5 -112.5zM45 6q0 33 44 79t77 46h233v1053h-233q-31 0 -76 48t-45 79v196q0 45 47 86t92 41h860q43 0 91.5 -41t48.5 -84v-200q0 -33 -44 -79t-77 -46h-234v-1053h234q33 0 77 -45t44 -78v-201q0 -31 -45 -77.5t-76 -46.5h-897q-31 0 -76 48 t-45 79v196zM80 6v-196q0 -12 37 -51.5t49 -39.5h897q14 0 50 37t36 51v201q0 14 -36 50t-50 36h-268v1127h268q16 0 51 35.5t35 52.5v200q0 25 -40 56.5t-65 31.5h-860q-29 0 -66.5 -30.5t-37.5 -59.5v-196q0 -12 37 -51t49 -39h268v-1127h-268q-18 0 -52 -34.5t-34 -53.5z " />
<glyph unicode="j" horiz-adv-x="1951" d="M0 184q0 -55 58.5 -114.5t113.5 -59.5h197v-200q0 -51 59 -113t111 -62h561q53 0 111.5 59.5t58.5 112.5v203h196q53 0 112.5 59.5t59.5 112.5v1327q0 63 -63.5 117.5t-126.5 54.5h-522q-63 0 -126 -55t-63 -119v-196q0 -57 56.5 -115.5t113.5 -58.5h195v-957h-567v578 q0 53 -59.5 112.5t-113.5 59.5h-190q-51 0 -111.5 -61.5t-60.5 -112.5v-572zM45 184v572q0 31 48 79t79 48h190q31 0 78 -47.5t47 -77.5v-625h662v1051h-242q-35 0 -80 46t-45 81v196q0 45 48.5 86t95.5 41h522q45 0 95 -41t50 -84v-1327q0 -35 -46 -80t-81 -45h-241v-250 q0 -29 -48.5 -76.5t-76.5 -47.5h-561q-29 0 -77 49t-48 78v247h-242q-35 0 -81 46.5t-46 80.5zM82 184q0 -18 36 -54t54 -36h279v-284q0 -14 36.5 -52.5t51.5 -38.5h561q14 0 51 37t37 51v287h278q18 0 54 35t36 53v1327q0 25 -40.5 56.5t-67.5 31.5h-522q-27 0 -67 -31.5 t-40 -58.5v-196q0 -18 35 -54t53 -36h279v-1125h-735v662q0 14 -37 51t-52 37h-190q-14 0 -52 -38t-38 -52v-572z" />
<glyph unicode="k" horiz-adv-x="1925" d="M0 -190q0 -51 60.5 -113t111.5 -62h190q53 0 113 59.5t60 112.5v576h202v-199q0 -55 57.5 -114.5t112.5 -59.5h197v-200q0 -51 60.5 -113t111.5 -62h190q53 0 112.5 59.5t59.5 112.5v201q0 51 -60 110.5t-112 59.5h-196v203q0 53 -58.5 113.5t-111.5 60.5h-197v207h197 q53 0 111.5 59.5t58.5 112.5v203h196q53 0 112.5 59t59.5 113v200q0 53 -59 112.5t-113 59.5h-190q-53 0 -112.5 -60t-59.5 -114v-200h-197q-53 0 -111.5 -61.5t-58.5 -115.5v-198h-202v577q0 68 -74 123l2 -2q-63 51 -119 51h-154q-66 0 -128 -55t-62 -119v-1697zM45 -190 v1697q0 45 49 86t96 41h154q45 0 94 -41t49 -84v-624h295v245q0 31 47.5 80.5t77.5 49.5h244v247q0 33 46 80t79 47h190q31 0 79 -47t48 -78v-200q0 -31 -48 -78t-79 -47h-241v-250q0 -33 -46 -80t-79 -47h-242v-299h242q31 0 78 -48t47 -79v-250h241q31 0 79 -46t48 -77 v-201q0 -31 -48 -77.5t-79 -46.5h-190q-31 0 -78 48t-47 79v247h-244q-37 0 -81 45t-44 82v246h-295v-623q0 -31 -47 -77.5t-78 -46.5h-190q-31 0 -79 48t-48 79zM82 -190q0 -14 38 -52.5t52 -38.5h190q14 0 51.5 37t37.5 51v660h368v-283q0 -20 34 -55t54 -35h281v-284 q0 -14 37 -52.5t51 -38.5h190q16 0 53 36t37 52v201q0 10 -36 51q-39 35 -54 35h-278v287q0 16 -36 52t-52 36h-279v377h279q20 0 54 33.5t34 54.5v287h278q16 0 53 35.5t37 52.5v200q0 16 -36.5 52t-53.5 36h-190q-16 0 -52 -36.5t-36 -53.5v-286h-281q-16 0 -52 -37 t-36 -54v-282h-368v661q0 27 -39 57.5t-68 30.5h-154q-29 0 -68.5 -31.5t-39.5 -58.5v-1697z" />
<glyph unicode="l" horiz-adv-x="1808" d="M0 184q0 -55 58.5 -114.5t113.5 -59.5h197v-200q0 -51 59 -113t111 -62h927q53 0 112.5 59.5t59.5 112.5v201q0 51 -60 110.5t-112 59.5h-931v1331q0 68 -74 123l2 -2q-63 51 -119 51h-154q-66 0 -128 -55t-62 -119v-1323zM45 184v1323q0 45 49 86t96 41h154q45 0 94 -41 t49 -84v-1378h979q31 0 79 -46t48 -77v-201q0 -31 -48 -77.5t-79 -46.5h-927q-29 0 -77 49t-48 78v247h-242q-35 0 -81 46.5t-46 80.5zM82 184q0 -18 36 -54t54 -36h279v-284q0 -14 36.5 -52.5t51.5 -38.5h927q16 0 53 36t37 52v201q0 10 -36 51q-39 35 -54 35h-1015v1415 q0 27 -39 57.5t-68 30.5h-154q-29 0 -68.5 -31.5t-39.5 -58.5v-1323z" />
<glyph unicode="m" horiz-adv-x="2375" d="M0 -190q0 -51 61.5 -113t112.5 -62h197q53 0 113.5 59.5t60.5 112.5v953h207v-201q0 -51 61 -112.5t113 -61.5h196q53 0 113.5 59.5t60.5 112.5v203h207v-950q0 -51 61.5 -113t112.5 -62h197q53 0 113.5 59.5t60.5 112.5v1702q0 53 -60.5 112.5t-113.5 59.5h-197 q-51 0 -112.5 -61t-61.5 -113v-200h-200q-53 0 -115 -61.5t-62 -115.5v-198h-204v201q0 51 -62.5 112.5t-114.5 61.5h-200v202q0 61 -64.5 116.5t-128.5 55.5h-159q-63 0 -128 -55t-65 -119v-1697zM47 -190v1697q0 45 49 86t97 41h159q45 0 95.5 -40t50.5 -85v-249h247 q33 0 81 -47.5t48 -79.5v-248h300v245q0 33 48 81.5t81 48.5h247v247q0 29 49.5 78t77.5 49h197q31 0 79 -47t48 -78v-1702q0 -31 -48 -77.5t-79 -46.5h-197q-29 0 -78 49t-49 78v997h-301v-250q0 -31 -48 -78t-79 -47h-196q-29 0 -78 49t-49 78v248h-301v-1000 q0 -31 -48.5 -77.5t-78.5 -46.5h-197q-29 0 -78 49t-49 78zM84 -190q0 -12 39 -51.5t51 -39.5h197q14 0 52 37t38 51v1037h375v-285q0 -12 38.5 -51t51.5 -39h196q14 0 52 37t38 51v287h375v-1034q0 -12 39 -51.5t51 -39.5h197q14 0 52 37t38 51v1702q0 14 -38 51t-52 37 h-197q-12 0 -51 -38.5t-39 -51.5v-286h-284q-18 0 -54.5 -36t-36.5 -55v-282h-376v285q0 18 -36 53t-55 35h-284v288q0 25 -41 56.5t-68 31.5h-159q-29 0 -69 -31.5t-40 -58.5v-1697z" />
<glyph unicode="n" horiz-adv-x="1966" d="M0 -190q0 -51 60.5 -113t111.5 -62h190q53 0 113 59.5t60 112.5v953h202v-201q0 -57 56.5 -115.5t113.5 -58.5h197v-575q0 -51 60.5 -113t111.5 -62h190q53 0 112.5 59.5t59.5 112.5v1702q0 53 -59 112.5t-113 59.5h-190q-53 0 -112.5 -60t-59.5 -114v-575h-203v201 q0 53 -58.5 113.5t-111.5 60.5h-196v202q0 63 -63.5 117.5t-127.5 54.5h-154q-66 0 -128 -55t-62 -119v-1697zM45 -190v1697q0 45 49 86t96 41h154q45 0 94 -41t49 -84v-249h244q33 0 79 -47.5t46 -79.5v-248h295v622q0 33 46 80t79 47h190q31 0 79 -47t48 -78v-1702 q0 -31 -48 -77.5t-79 -46.5h-190q-31 0 -78 48t-47 79v622h-244q-35 0 -80 46t-45 81v248h-295v-1000q0 -31 -47 -77.5t-78 -46.5h-190q-31 0 -79 48t-48 79zM82 -190q0 -14 38 -52.5t52 -38.5h190q14 0 51.5 37t37.5 51v1037h368v-285q0 -18 35 -54t53 -36h281v-659 q0 -14 37 -52.5t51 -38.5h190q16 0 53 36t37 52v1702q0 16 -36.5 52t-53.5 36h-190q-16 0 -52 -36.5t-36 -53.5v-659h-369v285q0 16 -35.5 52t-52.5 36h-280v288q0 27 -39 57.5t-68 30.5h-154q-29 0 -68.5 -31.5t-39.5 -58.5v-1697z" />
<glyph unicode="o" horiz-adv-x="1937" d="M0 184q0 -55 58.5 -114.5t113.5 -59.5h197v-200q0 -51 59 -113t111 -62h561q51 0 110.5 60.5t59.5 111.5v203h196q53 0 112.5 59.5t59.5 112.5v951q0 51 -60 112.5t-112 61.5h-196v202q0 70 -74 123l2 -2q-63 51 -117 51h-524q-63 0 -125.5 -55t-62.5 -119v-200h-197 q-51 0 -111.5 -62.5t-60.5 -114.5v-946zM45 184v946q0 31 48 80.5t79 49.5h242v247q0 45 48 86t95 41h524q45 0 94.5 -41t49.5 -84v-249h241q31 0 79 -48.5t48 -78.5v-951q0 -33 -47 -79t-80 -46h-241v-250q0 -29 -48.5 -76.5t-76.5 -47.5h-561q-29 0 -77 49t-48 78v247 h-242q-35 0 -81 46.5t-46 80.5zM82 184q0 -18 36 -54t54 -36h279v-284q0 -14 36.5 -52.5t51.5 -38.5h561q14 0 51 37t37 51v287h278q18 0 54 35t36 53v951q0 18 -35.5 53t-54.5 35h-278v288q0 25 -40 56.5t-67 31.5h-524q-27 0 -66.5 -31.5t-39.5 -58.5v-286h-279 q-16 0 -53 -37t-37 -54v-946zM453 96v1123h733v-1123h-733zM489 133h660v1049h-660v-1049zM537 180v955h565v-955h-565z" />
<glyph unicode="p" horiz-adv-x="1894" d="M0 -190q0 -51 60.5 -113t111.5 -62h190q53 0 113 59.5t60 112.5v203h565q53 0 111.5 59.5t58.5 112.5v203h196q53 0 112.5 59.5t59.5 112.5v576q0 51 -60 112.5t-112 61.5h-196v202q0 70 -74 123l2 -2q-63 51 -117 51h-524q-63 0 -125.5 -55t-62.5 -119v-200h-197 q-53 0 -112.5 -61.5t-59.5 -115.5v-1320zM45 -190v1320q0 33 47 81.5t80 48.5h242v247q0 45 48 86t95 41h524q45 0 94.5 -41t49.5 -84v-249h241q31 0 79 -48.5t48 -78.5v-576q0 -31 -48 -78t-79 -47h-241v-250q0 -33 -46 -79t-79 -46h-613v-250q0 -31 -47 -77.5t-78 -46.5 h-190q-31 0 -79 48t-48 79zM82 -190q0 -14 38 -52.5t52 -38.5h190q14 0 51.5 37t37.5 51v287h649q20 0 54 34t34 54v287h278q16 0 53 36t37 52v576q0 18 -35.5 53t-54.5 35h-278v288q0 25 -40 56.5t-67 31.5h-524q-27 0 -66.5 -31.5t-39.5 -58.5v-286h-279q-18 0 -54 -36 t-36 -55v-1320zM453 471v748h733v-748h-733zM489 510h660v672h-660v-672zM537 557v578h565v-578h-565z" />
<glyph unicode="q" horiz-adv-x="1951" d="M0 184q0 -55 58.5 -114.5t113.5 -59.5h197v-200q0 -51 59 -113t111 -62h927q53 0 112.5 59.5t59.5 112.5v1326q0 51 -60 112.5t-112 61.5h-196v202q0 61 -63.5 116.5t-125.5 55.5h-524q-63 0 -125.5 -55t-62.5 -119v-200h-197q-51 0 -111.5 -62.5t-60.5 -114.5v-946z M45 184v946q0 31 48 80.5t79 49.5h242v247q0 45 48 86t95 41h524q45 0 94.5 -41t49.5 -84v-249h241q31 0 79 -48.5t48 -78.5v-1326q0 -31 -48 -77.5t-79 -46.5h-927q-29 0 -77 49t-48 78v247h-242q-35 0 -81 46.5t-46 80.5zM82 184q0 -18 36 -54t54 -36h279v-284 q0 -14 36.5 -52.5t51.5 -38.5h927q16 0 53 36t37 52v1326q0 18 -35.5 53t-54.5 35h-278v288q0 25 -40 56.5t-67 31.5h-524q-27 0 -66.5 -31.5t-39.5 -58.5v-286h-279q-16 0 -53 -37t-37 -54v-946zM453 96v1123h733v-750h-279q-18 0 -53 -35t-35 -53v-285h-366zM489 133h293 v248q0 35 46 81t79 46h242v674h-660v-1049zM537 180v955h565v-580h-195q-55 0 -112.5 -59.5t-57.5 -114.5v-201h-200z" />
<glyph unicode="r" horiz-adv-x="1943" d="M0 -190q0 -51 60.5 -113t111.5 -62h190q53 0 113 59.5t60 112.5v201h569v-198q0 -51 60.5 -113t111.5 -62h190q53 0 112.5 59.5t59.5 112.5v201q0 51 -60 110.5t-112 59.5h-194v207h194q53 0 112.5 59.5t59.5 112.5v576q0 51 -60 112.5t-112 61.5h-196v202 q0 61 -63.5 116.5t-125.5 55.5h-891q-66 0 -128 -55t-62 -119v-1697zM45 -190v1697q0 45 49 86t96 41h891q45 0 94.5 -41t49.5 -84v-249h241q31 0 79 -48.5t48 -78.5v-576q0 -31 -48 -78t-79 -47h-239v-301h239q31 0 79 -46t48 -77v-201q0 -31 -48 -77.5t-79 -46.5h-190 q-31 0 -78 48t-47 79v245h-664v-248q0 -31 -47 -77.5t-78 -46.5h-190q-31 0 -79 48t-48 79zM82 -190q0 -14 38 -52.5t52 -38.5h190q14 0 51.5 37t37.5 51v285h737v-282q0 -14 37 -52.5t51 -38.5h190q16 0 53 36t37 52v201q0 10 -36 51q-39 35 -54 35h-276v375h276 q16 0 53 36t37 52v576q0 18 -35.5 53t-54.5 35h-278v288q0 25 -40 56.5t-67 31.5h-891q-29 0 -68.5 -31.5t-39.5 -58.5v-1697zM453 471v748h733v-748h-733zM489 510h660v672h-660v-672zM537 557v578h565v-578h-565z" />
<glyph unicode="s" horiz-adv-x="1918" d="M0 6v-196q0 -51 60.5 -113t111.5 -62h928q51 0 110.5 60.5t59.5 111.5v203h196q53 0 112.5 59.5t59.5 112.5v199q0 51 -60 112.5t-112 61.5h-196v203q0 53 -58.5 112.5t-111.5 59.5h-563v207h929q53 0 112.5 59t59.5 113v200q0 63 -63.5 117.5t-126.5 54.5h-891 q-63 0 -125.5 -55t-62.5 -119v-200h-197q-51 0 -111.5 -62.5t-60.5 -114.5v-194q0 -55 58.5 -114.5t113.5 -59.5h197v-203q0 -51 59 -112.5t111 -61.5h563v-207h-930q-53 0 -112.5 -59.5t-59.5 -112.5zM45 6q0 33 47 79t80 46h977v301h-610q-29 0 -77 49t-48 78v248h-242 q-35 0 -81 47t-46 82v194q0 31 48 80.5t79 49.5h242v247q0 45 48 86t95 41h891q45 0 95 -41t50 -84v-200q0 -33 -47 -79t-80 -46h-977v-301h611q29 0 77 -48.5t48 -76.5v-250h241q31 0 79 -48t48 -79v-199q0 -33 -47 -79t-80 -46h-241v-250q0 -29 -48.5 -76.5t-76.5 -47.5 h-928q-31 0 -79 48t-48 79v196zM82 6v-196q0 -14 38 -52.5t52 -38.5h928q14 0 51 37t37 51v287h278q18 0 54 35t36 53v199q0 18 -35.5 53t-54.5 35h-278v289q0 14 -37 51t-51 37h-647v375h1013q16 0 53 35.5t37 52.5v200q0 25 -40.5 56.5t-67.5 31.5h-891q-27 0 -66.5 -31.5 t-39.5 -58.5v-286h-279q-16 0 -53 -37t-37 -54v-194q0 -18 36 -54t54 -36h279v-287q0 -14 36.5 -52t51.5 -38h647v-375h-1014q-18 0 -54 -34.5t-36 -53.5z" />
<glyph unicode="t" horiz-adv-x="1695" d="M0 1311q0 -55 56.5 -114.5t111.5 -59.5h287v-1327q0 -53 57 -114t111 -61h188q51 0 109.5 60.5t58.5 111.5v1330h287q53 0 110.5 59.5t57.5 112.5v200q0 68 -72 123v-2q-61 51 -115 51h-1061q-63 0 -124.5 -56t-61.5 -118v-196zM45 1311v196q0 45 48 86t93 41h1061 q43 0 92.5 -41t49.5 -84v-200q0 -33 -45.5 -79t-77.5 -46h-332v-1377q0 -31 -46 -77.5t-77 -46.5h-188q-29 0 -76 49t-47 78v1374h-332q-33 0 -78 47t-45 80zM82 1311q0 -16 35 -53t51 -37h367v-1411q0 -14 36.5 -52.5t51.5 -38.5h188q14 0 51 37t37 51v1414h367q16 0 51 36 t35 52v200q0 25 -40 56.5t-65 31.5h-1061q-29 0 -66.5 -30.5t-37.5 -59.5v-196z" />
<glyph unicode="u" horiz-adv-x="1951" d="M0 184q0 -55 58.5 -114.5t113.5 -59.5h197v-200q0 -51 59 -113t111 -62h561q51 0 110.5 60.5t59.5 111.5v203h196q53 0 112.5 59.5t59.5 112.5v1327q0 53 -59 112.5t-113 59.5h-190q-51 0 -111.5 -61t-60.5 -113v-1327h-569v1329q0 63 -63.5 117.5t-127.5 54.5h-154 q-66 0 -128 -55t-62 -119v-1323zM45 184v1323q0 45 49 86t96 41h154q45 0 94 -41t49 -84v-1376h664v1374q0 31 47 79t78 48h190q31 0 79 -47t48 -78v-1327q0 -33 -47 -79t-80 -46h-241v-250q0 -29 -48.5 -76.5t-76.5 -47.5h-561q-29 0 -77 49t-48 78v247h-242 q-35 0 -81 46.5t-46 80.5zM82 184q0 -18 36 -54t54 -36h279v-284q0 -14 36.5 -52.5t51.5 -38.5h561q14 0 51 37t37 51v287h278q18 0 54 35t36 53v1327q0 16 -36.5 52t-53.5 36h-190q-14 0 -51 -37.5t-37 -52.5v-1411h-737v1413q0 27 -39 57.5t-68 30.5h-154 q-29 0 -68.5 -31.5t-39.5 -58.5v-1323z" />
<glyph unicode="v" horiz-adv-x="2332" d="M0 559q0 -51 61.5 -112.5t112.5 -61.5h201v-201q0 -55 60.5 -114.5t115.5 -59.5h201v-200q0 -51 61 -113t113 -62h196q53 0 113.5 59.5t60.5 112.5v203h201q55 0 115.5 58.5t60.5 113.5v203h201q53 0 113.5 59.5t60.5 112.5v952q0 53 -60.5 112.5t-113.5 59.5h-197 q-51 0 -112.5 -61t-61.5 -113v-952h-200q-53 0 -115 -61.5t-62 -114.5v-199h-204v201q0 51 -62.5 112.5t-114.5 61.5h-200v954q0 61 -64.5 116.5t-128.5 55.5h-159q-63 0 -128 -55t-65 -119v-948zM47 559v948q0 45 49 86t97 41h159q45 0 95.5 -40t50.5 -85v-1001h247 q33 0 81 -47t48 -80v-248h300v246q0 33 48 81t81 48h247v999q0 29 49.5 78t77.5 49h197q31 0 79 -47t48 -78v-952q0 -31 -48 -78t-79 -47h-248v-250q0 -35 -47 -80t-82 -45h-248v-250q0 -31 -48 -77.5t-79 -46.5h-196q-29 0 -78 49t-49 78v247h-248q-37 0 -83 45t-46 82v248 h-248q-29 0 -78 49t-49 78zM84 559q0 -12 39 -51t51 -39h287v-285q0 -20 34.5 -55t55.5 -35h285v-284q0 -12 38.5 -51.5t51.5 -39.5h196q14 0 52 37t38 51v287h285q20 0 55 34t35 54v287h287q14 0 52 37t38 51v952q0 14 -38 51t-52 37h-197q-12 0 -51 -38.5t-39 -51.5v-1038 h-284q-18 0 -54.5 -36t-36.5 -54v-283h-376v285q0 18 -36 53t-55 35h-284v1040q0 25 -41 56.5t-68 31.5h-159q-29 0 -69 -31.5t-40 -58.5v-948z" />
<glyph unicode="w" horiz-adv-x="2375" d="M0 -190q0 -51 61.5 -113t112.5 -62h197q53 0 113.5 59.5t60.5 112.5v203h200q53 0 115 59.5t62 112.5v201h204v-199q0 -55 60.5 -114.5t116.5 -59.5h200v-200q0 -51 61.5 -113t112.5 -62h197q53 0 113.5 59.5t60.5 112.5v1702q0 53 -60.5 112.5t-113.5 59.5h-197 q-53 0 -113.5 -60t-60.5 -114v-950h-207v201q0 53 -60 112.5t-114 59.5h-196q-51 0 -112.5 -61.5t-61.5 -112.5v-199h-207v952q0 61 -64.5 116.5t-128.5 55.5h-159q-63 0 -128 -55t-65 -119v-1697zM47 -190v1697q0 45 49 86t97 41h159q45 0 95.5 -40t50.5 -85v-999h301v246 q0 29 49 78t78 49h196q31 0 79 -47.5t48 -77.5v-248h301v997q0 31 48.5 79t78.5 48h197q31 0 79 -47t48 -78v-1702q0 -31 -48 -77.5t-79 -46.5h-197q-29 0 -78 49t-49 78v247h-247q-37 0 -83 45t-46 82v246h-300v-248q0 -33 -48 -79t-81 -46h-247v-250q0 -31 -48.5 -77.5 t-78.5 -46.5h-197q-29 0 -78 49t-49 78zM84 -190q0 -12 39 -51.5t51 -39.5h197q14 0 52 37t38 51v287h284q18 0 54.5 35t36.5 53v285h376v-283q0 -20 35 -55t56 -35h284v-284q0 -12 39 -51.5t51 -39.5h197q14 0 52 37t38 51v1702q0 14 -38 51t-52 37h-197q-14 0 -52 -37.5 t-38 -52.5v-1036h-375v287q0 14 -37.5 51t-52.5 37h-196q-14 0 -52 -38t-38 -52v-285h-375v1038q0 25 -41 56.5t-68 31.5h-159q-29 0 -69 -31.5t-40 -58.5v-1697z" />
<glyph unicode="x" horiz-adv-x="2334" d="M0 6v-196q0 -51 61.5 -113t112.5 -62h197q53 0 113.5 59.5t60.5 112.5v203h200q53 0 115 59.5t62 112.5v201h204v-199q0 -55 60.5 -114.5t116.5 -59.5h200v-200q0 -51 61.5 -113t112.5 -62h197q53 0 113.5 59.5t60.5 112.5v201q0 53 -60.5 111.5t-113.5 58.5h-201v203 q0 51 -62.5 112.5t-113.5 61.5h-199v207h199q55 0 115.5 58.5t60.5 113.5v203h201q53 0 113.5 59t60.5 113v200q0 53 -60.5 112.5t-113.5 59.5h-197q-51 0 -112.5 -61t-61.5 -113v-200h-200q-53 0 -115 -61.5t-62 -115.5v-198h-204v201q0 51 -62.5 112.5t-114.5 61.5h-200 v202q0 61 -64.5 116.5t-128.5 55.5h-159q-63 0 -128 -55t-65 -119v-196q0 -51 61.5 -112.5t112.5 -61.5h201v-201q0 -55 60.5 -114.5t115.5 -59.5h199v-207h-199q-49 0 -112.5 -63.5t-63.5 -112.5v-201h-201q-55 0 -114.5 -58.5t-59.5 -113.5zM47 6q0 33 47 79t80 46h248 v248q0 31 49 80t80 49h246v299h-246q-35 0 -82 47t-47 82v248h-248q-29 0 -78 49t-49 78v196q0 45 49 86t97 41h159q45 0 95.5 -40t50.5 -85v-249h247q33 0 81 -47.5t48 -79.5v-248h300v245q0 33 48 81.5t81 48.5h247v247q0 29 49.5 78t77.5 49h197q31 0 79 -47t48 -78v-200 q0 -31 -48 -78t-79 -47h-248v-250q0 -35 -47 -81t-82 -46h-246v-299h246q33 0 81 -47t48 -80v-250h248q31 0 79 -46t48 -77v-201q0 -31 -48 -77.5t-79 -46.5h-197q-29 0 -78 49t-49 78v247h-247q-37 0 -83 45t-46 82v246h-300v-248q0 -33 -48 -79t-81 -46h-247v-250 q0 -31 -48.5 -77.5t-78.5 -46.5h-197q-29 0 -78 49t-49 78v196zM84 6v-196q0 -12 39 -51.5t51 -39.5h197q14 0 52 37t38 51v287h284q18 0 54.5 35t36.5 53v285h376v-283q0 -20 35 -55t56 -35h284v-284q0 -12 39 -51.5t51 -39.5h197q14 0 52 37t38 51v201q0 14 -38 50t-52 36 h-287v287q0 18 -35.5 53t-54.5 35h-283v377h283q20 0 55 33.5t35 54.5v287h287q14 0 52 36.5t38 51.5v200q0 14 -38 51t-52 37h-197q-12 0 -51 -38.5t-39 -51.5v-286h-284q-18 0 -54.5 -36t-36.5 -55v-282h-376v285q0 18 -36 53t-55 35h-284v288q0 25 -41 56.5t-68 31.5 h-159q-29 0 -69 -31.5t-40 -58.5v-196q0 -12 39 -51t51 -39h287v-285q0 -20 34.5 -55t55.5 -35h283v-377h-283q-16 0 -53 -37t-37 -53v-285h-287q-16 0 -53 -35.5t-37 -52.5z" />
<glyph unicode="y" horiz-adv-x="2308" d="M0 936q0 -51 61.5 -112.5t112.5 -61.5h201v-203q0 -55 60.5 -114.5t115.5 -59.5h201v-575q0 -51 61 -113t113 -62h196q53 0 113.5 59.5t60.5 112.5v578h201q53 0 114.5 59.5t61.5 112.5v205h201q53 0 113.5 59.5t60.5 112.5v575q0 53 -60.5 112.5t-113.5 59.5h-197 q-51 0 -112.5 -61t-61.5 -113v-575h-958v577q0 61 -64.5 116.5t-128.5 55.5h-159q-63 0 -128 -55t-65 -119v-571zM47 936v571q0 45 49 86t97 41h159q45 0 95.5 -40t50.5 -85v-624h1052v622q0 29 49.5 78t77.5 49h197q31 0 79 -47t48 -78v-575q0 -31 -48 -79t-79 -48h-248 v-250q0 -33 -48 -79t-81 -46h-248v-625q0 -31 -48 -77.5t-79 -46.5h-196q-29 0 -78 49t-49 78v622h-248q-35 0 -82 46t-47 81v248h-248q-31 0 -79 49t-48 80zM84 936q0 -14 38 -52t52 -38h287v-287q0 -18 35.5 -54t54.5 -36h285v-659q0 -12 38.5 -51.5t51.5 -39.5h196 q14 0 52 37t38 51v662h285q18 0 54 35t36 53v289h287q16 0 53 36t37 52v575q0 14 -38 51t-52 37h-197q-12 0 -51 -38.5t-39 -51.5v-659h-1126v661q0 25 -41 56.5t-68 31.5h-159q-29 0 -69 -31.5t-40 -58.5v-571z" />
<glyph unicode="z" horiz-adv-x="1933" d="M0 -190q0 -51 60.5 -113t111.5 -62h1294q53 0 112.5 59.5t59.5 112.5v201q0 51 -60 110.5t-112 59.5h-929v207h563q53 0 111.5 59.5t58.5 112.5v205h196q53 0 112.5 59.5t59.5 112.5v575q0 63 -63.5 117.5t-126.5 54.5h-1258q-66 0 -128 -55t-62 -119v-196 q0 -55 58.5 -114.5t113.5 -59.5h930v-207h-563q-53 0 -111.5 -60.5t-58.5 -113.5v-201h-197q-53 0 -112.5 -61.5t-59.5 -114.5v-569zM45 -190v569q0 33 47 81t80 48h242v248q0 29 48 78t77 49h610v301h-977q-33 0 -80 47t-47 80v196q0 45 49 86t96 41h1258q45 0 95 -41 t50 -84v-575q0 -33 -47 -80t-80 -47h-241v-250q0 -31 -47.5 -78t-77.5 -47h-611v-301h977q31 0 79 -46t48 -77v-201q0 -31 -48 -77.5t-79 -46.5h-1294q-31 0 -79 48t-48 79zM82 -190q0 -14 38 -52.5t52 -38.5h1294q16 0 53 36t37 52v201q0 10 -36 51q-39 35 -54 35h-1013 v375h647q14 0 51 37t37 51v289h278q18 0 54 34.5t36 53.5v575q0 25 -40.5 56.5t-67.5 31.5h-1258q-29 0 -68.5 -31.5t-39.5 -58.5v-196q0 -18 36 -54t54 -36h1014v-375h-647q-14 0 -51 -38t-37 -52v-287h-279q-18 0 -54 -36t-36 -54v-569z" />
<glyph unicode="&#x2000;" horiz-adv-x="846" />
<glyph unicode="&#x2001;" horiz-adv-x="1692" />
<glyph unicode="&#x2002;" horiz-adv-x="846" />
<glyph unicode="&#x2003;" horiz-adv-x="1692" />
<glyph unicode="&#x2004;" horiz-adv-x="564" />
<glyph unicode="&#x2005;" horiz-adv-x="423" />
<glyph unicode="&#x2006;" horiz-adv-x="282" />
<glyph unicode="&#x2007;" horiz-adv-x="282" />
<glyph unicode="&#x2008;" horiz-adv-x="211" />
<glyph unicode="&#x2009;" horiz-adv-x="338" />
<glyph unicode="&#x200a;" horiz-adv-x="94" />
<glyph unicode="&#x202f;" horiz-adv-x="338" />
<glyph unicode="&#x205f;" horiz-adv-x="423" />
<glyph unicode="&#x25fc;" horiz-adv-x="1679" d="M0 0v1679h1679v-1679h-1679z" />
</font>
</defs>
</svg>
